####
#
#	OBJ File Generated by LightWave3D
#	LightWave3D OBJ Export v2.3
#
####
o enderman.obj
mtllib enderman.mtl
g default
v -4 34.5 4
v -4 42.5 4
v 4 42.5 4
v 4 34.5 4
v -4 34.5 -4
v -4 42.5 -4
v 4 42.5 -4
v 4 34.5 -4
v -3 28.5 2
v -3 34.5 2
v 3 34.5 2
v 3 28.5 2
v -3 28.5 -2
v -3 34.5 -2
v 3 34.5 -2
v 3 28.5 -2
v 0.5 0 1
v 0.5 28.5 1
v 2.5 28.5 1
v 2.5 0 1
v 0.5 0 -1
v 0.5 28.5 -1
v 2.5 28.5 -1
v 2.5 0 -1
v -0.5 0 1
v -0.5 28.5 1
v -2.5 28.5 1
v -2.5 0 1
v -0.5 0 -1
v -0.5 28.5 -1
v -2.5 28.5 -1
v -2.5 0 -1
v -4.40764 10.2206 1
v -1.89895 34.0891 1
v -3.888 34.2981 1
v -6.39668 10.4296 1
v -4.40764 10.2206 -1
v -1.89895 34.0891 -1
v -3.888 34.2981 -1
v -6.39668 10.4296 -1
v 4.40764 10.2206 1
v 1.89895 34.0891 1
v 3.888 34.2981 1
v 6.39668 10.4296 1
v 4.40764 10.2206 -1
v 1.89895 34.0891 -1
v 3.888 34.2981 -1
v 6.39668 10.4296 -1
vt 0 0.5356
vt 0 0.591837
vt 0 0.615102
vt 0 0.737551
vt 0 0.755102
vt 0 0.985396
vt 0.0362204 0.5356
vt 0.0362204 0.985396
vt 0.0672408 0.5356
vt 0.0672408 0.985396
vt 0.0982613 0.5356
vt 0.0982613 0.985396
vt 0.113061 0.741837
vt 0.113061 0.875102
vt 0.122449 0.615102
vt 0.122449 0.737551
vt 0.163265 0.591837
vt 0.163265 0.755102
vt 0.261327 0.741837
vt 0.261327 0.875102
vt 0.299282 0.5356
vt 0.299282 0.985396
vt 0.326531 0.591837
vt 0.326531 0.755102
vt 0.330302 0.5356
vt 0.330302 0.985396
vt 0.347449 0.755102
vt 0.347449 0.877551
vt 0.361322 0.5356
vt 0.361322 0.985396
vt 0.392343 0.5356
vt 0.392343 0.985396
vt 0.423363 0.5356
vt 0.423363 0.919988
vt 0.423363 0.923355
vt 0.423363 0.985396
vt 0.457659 0.923355
vt 0.466619 0.5356
vt 0.469898 0.755102
vt 0.469898 0.877551
vt 0.489796 0.591837
vt 0.489796 0.755102
vt 0.500914 0.538967
vt 0.516424 0.923355
vt 0.516424 0.985396
vt 0.53521 0.5356
vt 0.54417 0.923355
vt 0.578465 0.919988
vt 0.609486 0.985396
vt 0.612761 0.923355
vt 0.621721 0.5356
vt 0.653061 0.591837
vt 0.653061 0.755102
vt 0.656016 0.538967
vt 0.690312 0.5356
vt 0.699272 0.923355
vt 0.733567 0.5356
vt 0.733567 0.907845
vt 0.733567 0.919988
vt 0.764588 0.5356
vt 0.764588 0.907845
vt 0.795608 0.5356
vt 0.795608 0.907845
vt 0.816327 0.591837
vt 0.816327 0.755102
vt 0.826629 0.5356
vt 0.826629 0.907845
vt 0.857649 0.5356
vt 0.857649 0.628661
vt 0.857649 0.721722
vt 0.857649 0.752743
vt 0.857649 0.783763
vt 0.857649 0.814784
vt 0.857649 0.845804
vt 0.857649 0.907845
vt 0.888669 0.721722
vt 0.888669 0.752743
vt 0.888669 0.783763
vt 0.888669 0.814784
vt 0.888669 0.845804
vt 0.91969 0.5356
vt 0.91969 0.628661
vt 0.91969 0.721722
vt 0.91969 0.752743
vt 0.91969 0.783763
vt 0.91969 0.814784
vt 0.91969 0.845804
vt 0.979592 0.591837
vt 0.979592 0.755102
vn 0 0 1
vn 0 0 1
vn 0 0 1
vn 0 0 1
vn -1 0 -0
vn -1 0 -0
vn -1 0 -0
vn -1 0 -0
vn 0 1 -0
vn 0 1 -0
vn 0 1 -0
vn 0 1 -0
vn 1 0 -0
vn 1 0 -0
vn 1 0 -0
vn 1 0 -0
vn 0 -1 -0
vn 0 -1 -0
vn 0 -1 -0
vn 0 -1 -0
vn 0 0 -1
vn 0 0 -1
vn 0 0 -1
vn 0 0 -1
vn 0 0 1
vn 0 0 1
vn 0 0 1
vn 0 0 1
vn -1 0 -0
vn -1 0 -0
vn -1 0 -0
vn -1 0 -0
vn 0 1 -0
vn 0 1 -0
vn 0 1 -0
vn 0 1 -0
vn 1 0 -0
vn 1 0 -0
vn 1 0 -0
vn 1 0 -0
vn 0 -1 -0
vn 0 -1 -0
vn 0 -1 -0
vn 0 -1 -0
vn 0 0 -1
vn 0 0 -1
vn 0 0 -1
vn 0 0 -1
vn 0 0 1
vn 0 0 1
vn 0 0 1
vn 0 0 1
vn -1 0 -0
vn -1 0 -0
vn -1 0 -0
vn -1 0 -0
vn 0 1 -0
vn 0 1 -0
vn 0 1 -0
vn 0 1 -0
vn 1 0 -0
vn 1 0 -0
vn 1 0 -0
vn 1 0 -0
vn 0 -1 -0
vn 0 -1 -0
vn 0 -1 -0
vn 0 -1 -0
vn 0 0 -1
vn 0 0 -1
vn 0 0 -1
vn 0 0 -1
vn 0 0 1
vn 0 0 1
vn 0 0 1
vn 0 0 1
vn 1 0 0
vn 1 0 0
vn 1 0 0
vn 1 0 0
vn 0 1 -0
vn 0 1 -0
vn 0 1 -0
vn 0 1 -0
vn -1 0 -0
vn -1 0 -0
vn -1 0 -0
vn -1 0 -0
vn -0 -1 0
vn -0 -1 0
vn -0 -1 0
vn -0 -1 0
vn 0 0 -1
vn 0 0 -1
vn 0 0 -1
vn 0 0 -1
vn 0 0 1
vn 0 0 1
vn 0 0 1
vn 0 0 1
vn 0.994522 -0.104528 -0
vn 0.994522 -0.104528 -0
vn 0.994522 -0.104528 -0
vn 0.994522 -0.104528 -0
vn 0.10453 0.994522 0
vn 0.10453 0.994522 0
vn 0.10453 0.994522 0
vn 0.10453 0.994522 0
vn -0.994522 0.104528 -0
vn -0.994522 0.104528 -0
vn -0.994522 0.104528 -0
vn -0.994522 0.104528 -0
vn -0.104528 -0.994522 0
vn -0.104528 -0.994522 0
vn -0.104528 -0.994522 0
vn -0.104528 -0.994522 0
vn 0 0 -1
vn 0 0 -1
vn 0 0 -1
vn 0 0 -1
vn 0 0 1
vn 0 0 1
vn 0 0 1
vn 0 0 1
vn -0.994522 -0.104528 -0
vn -0.994522 -0.104528 -0
vn -0.994522 -0.104528 -0
vn -0.994522 -0.104528 -0
vn -0.10453 0.994522 -0
vn -0.10453 0.994522 -0
vn -0.10453 0.994522 -0
vn -0.10453 0.994522 -0
vn 0.994522 0.104528 0
vn 0.994522 0.104528 0
vn 0.994522 0.104528 0
vn 0.994522 0.104528 0
vn 0.104528 -0.994522 -0
vn 0.104528 -0.994522 -0
vn 0.104528 -0.994522 -0
vn 0.104528 -0.994522 -0
vn 0 -0 -1
vn 0 -0 -1
vn 0 -0 -1
vn 0 -0 -1
g SURF-enderman
usemtl SURF-enderman
s off
f 4/19/1 3/20/2 2/14/3 1/13/4
f 2/24/5 6/42/6 5/41/7 1/23/8
f 3/88/9 7/89/10 6/65/11 2/64/12
f 8/17/13 7/18/14 3/5/15 4/2/16
f 5/42/17 8/53/18 4/52/19 1/41/20
f 6/18/21 7/24/22 8/23/23 5/17/24
f 12/39/25 11/40/26 10/28/27 9/27/28
f 10/70/29 14/83/30 13/82/31 9/35/32
f 11/69/33 15/49/34 14/45/35 10/44/36
f 16/81/37 15/82/38 11/69/39 12/44/40
f 13/36/41 16/45/42 12/44/43 9/35/44
f 14/4/45 15/16/46 16/15/47 13/3/48
f 20/29/49 19/30/50 18/26/51 17/25/52
f 18/22/53 22/26/54 21/25/55 17/21/56
f 19/86/57 23/87/58 22/80/59 18/79/60
f 24/7/61 23/8/62 19/12/63 20/11/64
f 21/78/65 24/85/66 20/84/67 17/77/68
f 22/6/69 23/8/70 24/7/71 21/1/72
f 25/31/73 26/32/74 27/30/75 28/29/76
f 25/31/77 29/33/78 30/36/79 26/32/80
f 26/85/81 30/86/82 31/79/83 27/78/84
f 28/9/85 27/10/86 31/8/87 32/7/88
f 25/79/89 28/73/90 32/74/91 29/80/92
f 29/9/93 32/7/94 31/8/95 30/10/96
f 33/55/97 34/59/98 35/56/99 36/54/100
f 33/62/101 37/66/102 38/67/103 34/63/104
f 34/78/105 38/79/106 39/73/107 35/72/108
f 36/60/109 35/61/110 39/63/111 40/62/112
f 33/77/113 36/71/114 40/72/115 37/78/116
f 37/46/117 40/43/118 39/47/119 38/48/120
f 44/54/121 43/50/122 42/48/123 41/51/124
f 42/67/125 46/75/126 45/68/127 41/66/128
f 43/76/129 47/77/130 46/71/131 42/70/132
f 48/60/133 47/61/134 43/58/135 44/57/136
f 45/77/137 48/84/138 44/83/139 41/76/140
f 46/34/141 47/37/142 48/43/143 45/38/144
