####
#
#	OBJ File Generated by LightWave3D
#	LightWave3D OBJ Export v2.3
#
####
o mailbox.obj
mtllib mailbox.mtl
g default
v -0.0557471 1.36252 0.2794
v -0.109352 1.34626 0.2794
v -0.158754 1.31985 0.2794
v -0.202056 1.28432 0.2794
v -0.237592 1.24101 0.2794
v -0.263999 1.19161 0.2794
v -0.280259 1.13801 0.2794
v 0.0557471 1.36252 0.2794
v 0 1.36801 0.2794
v -0.0557471 1.36252 -0.2794
v -0.109352 1.34626 -0.2794
v -0.158754 1.31985 -0.2794
v -0.202056 1.28432 -0.2794
v -0.237592 1.24101 -0.2794
v -0.263999 1.19161 -0.2794
v -0.280259 1.13801 -0.2794
v 0.0557471 1.36252 -0.2794
v 0 1.36801 -0.2794
v -0.28575 0.32026 0.2794
v 0.28575 0.32026 0.2794
v 0.28575 0.32026 -0.2794
v -0.28575 0.32026 -0.2794
v -0.28575 1.08226 -0.2794
v -0.28575 1.08226 0.2794
v 0.28575 1.08226 0.254254
v 0.280259 1.13801 0.254254
v 0.280259 1.13801 -0.254254
v 0.28575 1.08226 -0.254254
v 0.263999 1.19161 0.254254
v 0.263999 1.19161 -0.254254
v 0.237592 1.24101 0.254254
v 0.237592 1.24101 -0.254254
v 0.202056 1.28432 0.254254
v 0.202056 1.28432 -0.254254
v 0.158754 1.31985 0.254254
v 0.158754 1.31985 -0.254254
v 0.109352 1.34626 0.254254
v 0.109352 1.34626 -0.254254
v 0.0163283 1.1046 0.254254
v 0.0154474 1.12533 0.254254
v 0.0154474 1.12533 -0.254254
v 0.0163283 1.1046 -0.254254
v 0.0145511 1.12829 0.254254
v 0.0145511 1.12829 -0.254254
v 0.0130957 1.13101 0.254254
v 0.0130957 1.13101 -0.254254
v -0.0788631 1.2434 0.254254
v -0.0788631 1.2434 -0.254254
v -0.0628124 1.26874 0.271
v -0.0628124 1.26874 -0.271
v 0.262812 1.07378 -0.271
v 0.262812 1.07378 0.271
v 0.112075 1.33814 -0.254254
v 0.28575 1.08226 -0.2794
v 0.109352 1.34626 -0.2794
v 0.158754 1.31985 -0.2794
v 0.202056 1.28432 -0.2794
v 0.237592 1.24101 -0.2794
v 0.263999 1.19161 -0.2794
v 0.280259 1.13801 -0.2794
v -0.0812498 1.24536 -0.254254
v 0.112075 1.33814 0.254254
v 0.28575 1.08226 0.2794
v 0.109352 1.34626 0.2794
v 0.158754 1.31985 0.2794
v 0.202056 1.28432 0.2794
v 0.237592 1.24101 0.2794
v 0.263999 1.19161 0.2794
v 0.280259 1.13801 0.2794
v -0.0812498 1.24536 0.254254
v 0.244055 0 0.275591
v 0.275945 0 0.275591
v 0.275945 0 0.244409
v 0.244055 0 0.244409
v 0.244055 0.34252 0.244409
v 0.244055 0.34252 0.275591
v 0.275945 0.34252 0.244409
v 0.275945 0.34252 0.275591
v -0.244055 0 0.275591
v -0.275945 0 0.275591
v -0.275945 0 0.244409
v -0.244055 0 0.244409
v -0.244055 0.34252 0.244409
v -0.244055 0.34252 0.275591
v -0.275945 0.34252 0.244409
v -0.275945 0.34252 0.275591
v 0.244055 0 -0.25559
v 0.275945 0 -0.25559
v 0.275945 0 -0.224409
v 0.244055 0 -0.224409
v 0.244055 0.34252 -0.224409
v 0.244055 0.34252 -0.25559
v 0.275945 0.34252 -0.224409
v 0.275945 0.34252 -0.25559
v -0.244055 0 -0.25559
v -0.275945 0 -0.25559
v -0.275945 0 -0.224409
v -0.244055 0 -0.224409
v -0.244055 0.34252 -0.224409
v -0.244055 0.34252 -0.25559
v -0.275945 0.34252 -0.224409
v -0.275945 0.34252 -0.25559
vt 0.00066334 0.685231
vt 0.00066334 0.898662
vt 0.000667423 0.000669113
vt 0.000667423 0.321844
vt 0.000667423 0.44362
vt 0.000667423 0.683896
vt 0.00297585 0.34534
vt 0.00981238 0.367934
vt 0.0209143 0.388757
vt 0.035855 0.407008
vt 0.0540603 0.421986
vt 0.0748306 0.433116
vt 0.0973676 0.43997
vt 0.113431 0.685231
vt 0.113431 0.898662
vt 0.114704 0.685229
vt 0.114704 0.83155
vt 0.120805 0.442284
vt 0.126907 0.685229
vt 0.126907 0.83155
vt 0.128127 0.685229
vt 0.128127 0.83155
vt 0.140329 0.685229
vt 0.140329 0.83155
vt 0.14155 0.685229
vt 0.14155 0.83155
vt 0.144243 0.43997
vt 0.153752 0.685229
vt 0.153752 0.83155
vt 0.154973 0.685229
vt 0.154973 0.83155
vt 0.16678 0.433116
vt 0.167175 0.685229
vt 0.167175 0.83155
vt 0.168395 0.685229
vt 0.168395 0.83155
vt 0.180598 0.685229
vt 0.180598 0.83155
vt 0.181818 0.685229
vt 0.181818 0.83155
vt 0.18755 0.421986
vt 0.194021 0.685229
vt 0.194021 0.83155
vt 0.195241 0.685229
vt 0.195241 0.83155
vt 0.205756 0.407008
vt 0.207444 0.685229
vt 0.207444 0.83155
vt 0.208664 0.685229
vt 0.208664 0.83155
vt 0.220696 0.388757
vt 0.220866 0.685229
vt 0.220866 0.83155
vt 0.222087 0.685229
vt 0.222087 0.83155
vt 0.231798 0.367934
vt 0.234289 0.685229
vt 0.234289 0.83155
vt 0.235509 0.685229
vt 0.235509 0.83155
vt 0.238635 0.34534
vt 0.240943 0.000669113
vt 0.240943 0.321844
vt 0.240943 0.44362
vt 0.240943 0.683896
vt 0.242277 0.44362
vt 0.242277 0.683896
vt 0.242278 0.000669113
vt 0.242278 0.321844
vt 0.244587 0.34534
vt 0.247712 0.685229
vt 0.247712 0.83155
vt 0.248932 0.685229
vt 0.248932 0.83155
vt 0.251423 0.367934
vt 0.260832 0.44362
vt 0.260832 0.683896
vt 0.261135 0.685229
vt 0.261135 0.83155
vt 0.262355 0.685229
vt 0.262355 0.83155
vt 0.262525 0.388757
vt 0.274558 0.685229
vt 0.274558 0.83155
vt 0.277466 0.407008
vt 0.282001 0.44362
vt 0.282001 0.683896
vt 0.295671 0.421986
vt 0.304971 0.44362
vt 0.304971 0.683896
vt 0.316441 0.433116
vt 0.328859 0.44362
vt 0.328859 0.683896
vt 0.338978 0.43997
vt 0.352747 0.44362
vt 0.352747 0.683896
vt 0.362416 0.442284
vt 0.375717 0.44362
vt 0.375717 0.454433
vt 0.375717 0.673084
vt 0.375717 0.683896
vt 0.385854 0.43997
vt 0.396886 0.44362
vt 0.396886 0.454433
vt 0.396886 0.673084
vt 0.396886 0.683896
vt 0.408391 0.433116
vt 0.415441 0.44362
vt 0.415441 0.454433
vt 0.415441 0.673084
vt 0.415441 0.683896
vt 0.416772 0.44362
vt 0.416772 0.670474
vt 0.429161 0.421986
vt 0.447366 0.407008
vt 0.462307 0.388757
vt 0.473409 0.367934
vt 0.480246 0.34534
vt 0.482554 0.000669113
vt 0.482554 0.321844
vt 0.483889 0.000668948
vt 0.483889 0.323202
vt 0.483889 0.346799
vt 0.483889 0.369488
vt 0.483889 0.390399
vt 0.483889 0.408727
vt 0.556382 0.44362
vt 0.556382 0.670474
vt 0.557713 0.560263
vt 0.557714 0.443606
vt 0.557714 0.485605
vt 0.557714 0.48928
vt 0.558751 0.559426
vt 0.598778 0.51142
vt 0.599411 0.510257
vt 0.599802 0.508995
vt 0.600185 0.500138
vt 0.640675 0.603364
vt 0.64186 0.599896
vt 0.662178 0.592084
vt 0.681026 0.576905
vt 0.696494 0.558408
vt 0.707988 0.537306
vt 0.715065 0.514409
vt 0.717455 0.490596
vt 0.718786 0.560263
vt 0.719825 0.559426
vt 0.724165 0.000668948
vt 0.724165 0.323202
vt 0.724165 0.346799
vt 0.724165 0.369488
vt 0.724165 0.390399
vt 0.724165 0.408727
vt 0.7255 0.000668948
vt 0.7255 0.323202
vt 0.7255 0.346799
vt 0.7255 0.369488
vt 0.7255 0.390399
vt 0.7255 0.408727
vt 0.736312 0.323202
vt 0.736312 0.346799
vt 0.736312 0.369488
vt 0.736312 0.390399
vt 0.736312 0.408727
vt 0.759852 0.51142
vt 0.760485 0.510257
vt 0.760875 0.508995
vt 0.761259 0.500138
vt 0.771145 0.443606
vt 0.771145 0.485605
vt 0.771145 0.48928
vt 0.801749 0.603364
vt 0.802934 0.599896
vt 0.823252 0.592084
vt 0.8421 0.576905
vt 0.857568 0.558408
vt 0.869061 0.537306
vt 0.876139 0.514409
vt 0.878529 0.490596
vt 0.954963 0.323202
vt 0.954963 0.346799
vt 0.954963 0.369488
vt 0.954963 0.390399
vt 0.954963 0.408727
vt 0.965776 0.000668948
vt 0.965776 0.323202
vt 0.965776 0.346799
vt 0.965776 0.369488
vt 0.965776 0.390399
vt 0.965776 0.408727
vt 0.967002 0.0114799
vt 0.967002 0.230131
vt 0.967053 0.242276
vt 0.967053 0.388597
vt 0.972595 0.000667433
vt 0.972595 0.240943
vt 0.973764 0.000665095
vt 0.973764 0.146986
vt 0.973764 0.148261
vt 0.973764 0.160464
vt 0.973764 0.161684
vt 0.973764 0.173887
vt 0.979256 0.242276
vt 0.979256 0.388597
vt 0.980476 0.242276
vt 0.980476 0.388597
vt 0.985967 0.000665095
vt 0.985967 0.146986
vt 0.985967 0.148261
vt 0.985967 0.160464
vt 0.985967 0.161684
vt 0.985967 0.173887
vt 0.987187 0.000665095
vt 0.987187 0.146986
vt 0.987187 0.148261
vt 0.987187 0.160464
vt 0.987187 0.161684
vt 0.987187 0.173887
vt 0.992678 0.242276
vt 0.992678 0.388597
vt 0.99939 0.000665095
vt 0.99939 0.146986
vt 0.99939 0.148261
vt 0.99939 0.160464
vt 0.99939 0.161684
vt 0.99939 0.173887
vn -0.098016 0.995185 -0
vn -0.098016 0.995185 -0
vn -0.098016 0.995185 -0
vn -0.098016 0.995185 -0
vn -0.098016 0.995185 -0
vn -0.098016 0.995185 -0
vn -0.290285 0.95694 -0
vn -0.290285 0.95694 -0
vn -0.290285 0.95694 -0
vn -0.290285 0.95694 -0
vn -0.290285 0.95694 -0
vn -0.290285 0.95694 -0
vn -0.471397 0.881921 -0
vn -0.471397 0.881921 -0
vn -0.471397 0.881921 -0
vn -0.471397 0.881921 -0
vn -0.471397 0.881921 -0
vn -0.471397 0.881921 -0
vn -0.634393 0.773011 -0
vn -0.634393 0.773011 -0
vn -0.634393 0.773011 -0
vn -0.634393 0.773011 -0
vn -0.634393 0.773011 -0
vn -0.634393 0.773011 -0
vn -0.77301 0.634393 -0
vn -0.77301 0.634393 -0
vn -0.77301 0.634393 -0
vn -0.77301 0.634393 -0
vn -0.77301 0.634393 -0
vn -0.77301 0.634393 -0
vn -0.881922 0.471396 -0
vn -0.881922 0.471396 -0
vn -0.881922 0.471396 -0
vn -0.881922 0.471396 -0
vn -0.881922 0.471396 -0
vn -0.881922 0.471396 -0
vn -0.95694 0.290285 -0
vn -0.95694 0.290285 -0
vn -0.95694 0.290285 -0
vn -0.95694 0.290285 -0
vn -0.95694 0.290285 -0
vn -0.95694 0.290285 -0
vn -0.995185 0.0980174 -0
vn -0.995185 0.0980174 -0
vn -0.995185 0.0980174 -0
vn -0.995185 0.0980174 -0
vn -0.995185 0.0980174 -0
vn -0.995185 0.0980174 -0
vn 0.290285 0.95694 0
vn 0.290285 0.95694 0
vn 0.290285 0.95694 0
vn 0.290285 0.95694 -0
vn 0.290285 0.95694 -0
vn 0.290285 0.95694 -0
vn 0.098016 0.995185 0
vn 0.098016 0.995185 0
vn 0.098016 0.995185 0
vn 0.098016 0.995185 -0
vn 0.098016 0.995185 -0
vn 0.098016 0.995185 -0
vn 0 0 1
vn 0 0 1
vn 0 0 1
vn 0 0 1
vn 0 0 1
vn 0 0 1
vn 0 0 1
vn 0 0 1
vn 0 0 1
vn 0 0 1
vn 0 0 1
vn 0 0 1
vn 0 0 1
vn 0 0 1
vn 0 0 1
vn 0 0 1
vn 0 0 1
vn 0 0 1
vn 0 0 1
vn 0 0 1
vn 0 0 1
vn 0 0 1
vn 0 0 1
vn 0 0 1
vn 0 0 1
vn 0 0 1
vn 0 0 1
vn 0 0 1
vn 0 0 1
vn 0 0 1
vn 0 0 1
vn 0 0 1
vn 0 0 1
vn 0 0 1
vn 0 0 1
vn 0 0 1
vn 0 0 1
vn 0 0 1
vn 0 0 1
vn 0 0 1
vn 0 0 1
vn 0 0 1
vn 0 0 1
vn 0 0 1
vn 0 0 1
vn 0 0 -1
vn 0 0 -1
vn 0 0 -1
vn 0 0 -1
vn 0 0 -1
vn 0 0 -1
vn 0 0 -1
vn 0 0 -1
vn 0 0 -1
vn 0 0 -1
vn 0 0 -1
vn 0 0 -1
vn 0 0 -1
vn 0 0 -1
vn 0 0 -1
vn 0 0 -1
vn 0 0 -1
vn 0 0 -1
vn 0 0 -1
vn 0 0 -1
vn 0 0 -1
vn 0 0 -1
vn 0 0 -1
vn 0 0 -1
vn 0 0 -1
vn 0 0 -1
vn 0 0 -1
vn 0 0 -1
vn 0 0 -1
vn 0 0 -1
vn 0 0 -1
vn 0 0 -1
vn 0 0 -1
vn 0 0 -1
vn 0 0 -1
vn 0 0 -1
vn 0 0 -1
vn 0 0 -1
vn 0 0 -1
vn 0 0 -1
vn 0 0 -1
vn 0 0 -1
vn 0 0 -1
vn 0 0 -1
vn 0 0 -1
vn -1 0 -0
vn -1 0 -0
vn -1 0 -0
vn -1 0 -0
vn -1 0 -0
vn -1 0 -0
vn 0 0 1
vn 0 0 1
vn 0 0 1
vn 0 0 1
vn 0 0 1
vn 0 0 1
vn 1 0 -0
vn 1 0 -0
vn 1 0 -0
vn 1 -0 -0
vn 1 -0 -0
vn 1 -0 -0
vn 0 0 -1
vn 0 0 -1
vn 0 0 -1
vn 0 0 -1
vn 0 0 -1
vn 0 0 -1
vn 0 -1 -0
vn 0 -1 -0
vn 0 -1 -0
vn 0 -1 -0
vn 0 -1 -0
vn 0 -1 -0
vn 0.995185 0.0980174 4.6467e-007
vn 0.995185 0.0980174 4.6467e-007
vn 0.995185 0.0980174 4.6467e-007
vn 0.995185 0.0980176 -0
vn 0.995185 0.0980176 -0
vn 0.995185 0.0980176 -0
vn 0.995185 0.0980176 -0
vn 0.995185 0.0980176 -0
vn 0.995185 0.0980176 -0
vn 0.995185 0.0980174 -4.6467e-007
vn 0.995185 0.0980174 -4.6467e-007
vn 0.995185 0.0980174 -4.6467e-007
vn 1 0 -0
vn 1 0 -0
vn 1 0 -0
vn 1 0 -0
vn 1 0 -0
vn 1 0 -0
vn 0.95694 0.290285 0
vn 0.95694 0.290285 0
vn 0.95694 0.290285 0
vn 0.95694 0.290285 -0
vn 0.95694 0.290285 -0
vn 0.95694 0.290285 -0
vn 0.95694 0.290285 0
vn 0.95694 0.290285 0
vn 0.95694 0.290285 0
vn 0.95694 0.290285 -0
vn 0.95694 0.290285 -0
vn 0.95694 0.290285 -0
vn 0.881922 0.471396 0
vn 0.881922 0.471396 0
vn 0.881922 0.471396 0
vn 0.881922 0.471396 -0
vn 0.881922 0.471396 -0
vn 0.881922 0.471396 -0
vn 0.881922 0.471396 0
vn 0.881922 0.471396 0
vn 0.881922 0.471396 0
vn 0.881922 0.471396 -0
vn 0.881922 0.471396 -0
vn 0.881922 0.471396 -0
vn 0.77301 0.634393 0
vn 0.77301 0.634393 0
vn 0.77301 0.634393 0
vn 0.77301 0.634393 -0
vn 0.77301 0.634393 -0
vn 0.77301 0.634393 -0
vn 0.77301 0.634393 0
vn 0.77301 0.634393 0
vn 0.77301 0.634393 0
vn 0.77301 0.634393 -0
vn 0.77301 0.634393 -0
vn 0.77301 0.634393 -0
vn 0.634393 0.773011 0
vn 0.634393 0.773011 0
vn 0.634393 0.773011 0
vn 0.634393 0.773011 -0
vn 0.634393 0.773011 -0
vn 0.634393 0.773011 -0
vn 0.634393 0.773011 0
vn 0.634393 0.773011 0
vn 0.634393 0.773011 0
vn 0.634393 0.773011 -0
vn 0.634393 0.773011 -0
vn 0.634393 0.773011 -0
vn 0.471397 0.881921 0
vn 0.471397 0.881921 0
vn 0.471397 0.881921 0
vn 0.471397 0.881921 -1.65292e-007
vn 0.471397 0.881921 -1.65292e-007
vn 0.471397 0.881921 -1.65292e-007
vn 0 -1 -0
vn 0 -1 -0
vn 0 -1 -0
vn 0 -1 -0
vn 0 -1 -0
vn 0 -1 -0
vn 0.471397 0.881921 1.65292e-007
vn 0.471397 0.881921 1.65292e-007
vn 0.471397 0.881921 1.65292e-007
vn 0.471397 0.881921 0
vn 0.471397 0.881921 0
vn 0.471397 0.881921 0
vn 0 0 -1
vn 0 0 -1
vn 0 0 -1
vn 0 -0 -1
vn 0 -0 -1
vn 0 -0 -1
vn 0 0 1
vn 0 0 1
vn 0 0 1
vn 0 0 1
vn 0 0 1
vn 0 0 1
vn 0.0826271 0.996581 -0
vn 0.0826271 0.996581 -0
vn 0.0826271 0.996581 -0
vn 0.0826271 0.996581 0
vn 0.0826271 0.996581 0
vn 0.0826271 0.996581 0
vn 0 0 -1
vn 0 0 -1
vn 0 0 -1
vn 0 -0 -1
vn 0 -0 -1
vn 0 -0 -1
vn 0 0 1
vn 0 0 1
vn 0 0 1
vn 0 0 1
vn 0 0 1
vn 0 0 1
vn 0 0 -1
vn 0 0 -1
vn 0 0 -1
vn 0 -0 -1
vn 0 -0 -1
vn 0 -0 -1
vn 0 0 1
vn 0 0 1
vn 0 0 1
vn 0 0 1
vn 0 0 1
vn 0 0 1
vn 0 0 -1
vn 0 0 -1
vn 0 0 -1
vn 0 -0 -1
vn 0 -0 -1
vn 0 -0 -1
vn 0 0 1
vn 0 0 1
vn 0 0 1
vn 0 0 1
vn 0 0 1
vn 0 0 1
vn 0 0 -1
vn 0 0 -1
vn 0 0 -1
vn 0 -0 -1
vn 0 -0 -1
vn 0 -0 -1
vn 0 0 1
vn 0 0 1
vn 0 0 1
vn 0 0 1
vn 0 0 1
vn 0 0 1
vn 0 0 -1
vn 0 0 -1
vn 0 0 -1
vn 0 0 -1
vn 0 0 -1
vn 0 0 -1
vn 0.948097 0.317983 0
vn 0.948097 0.317983 0
vn 0.948097 0.317983 0
vn 0.948097 0.317983 -0
vn 0.948097 0.317983 -0
vn 0.948097 0.317983 -0
vn 0 0 1
vn 0 0 1
vn 0 0 1
vn 0 0 1
vn 0 0 1
vn 0 0 1
vn 0.513675 0.857985 -0
vn 0.513675 0.857985 -0
vn 0.513675 0.857985 -0
vn 0.513675 0.857985 0
vn 0.513675 0.857985 0
vn 0.513675 0.857985 0
vn 0.432687 -0.901544 -0
vn 0.432687 -0.901544 -0
vn 0.432687 -0.901544 -0
vn 0.432687 -0.901544 -0
vn 0.432687 -0.901544 -0
vn 0.432687 -0.901544 -0
vn -1 0 -0
vn -1 0 -0
vn -1 0 -0
vn -1 0 -0
vn -1 0 -0
vn -1 0 -0
vn 0 0 1
vn 0 0 1
vn 0 0 1
vn 0 0 1
vn 0 0 1
vn 0 0 1
vn 1 0 -0
vn 1 0 -0
vn 1 0 -0
vn 1 -0 -0
vn 1 -0 -0
vn 1 -0 -0
vn 0 0 -1
vn 0 0 -1
vn 0 0 -1
vn 0 0 -1
vn 0 0 -1
vn 0 0 -1
vn 0 -1 -0
vn 0 -1 -0
vn 0 -1 -0
vn 0 -1 -0
vn 0 -1 -0
vn 0 -1 -0
vn 1 0 -0
vn 1 0 -0
vn 1 0 -0
vn 1 0 -0
vn 1 0 -0
vn 1 0 -0
vn 0 0 1
vn 0 0 1
vn 0 0 1
vn 0 0 1
vn 0 0 1
vn 0 0 1
vn -1 0 -0
vn -1 0 -0
vn -1 0 -0
vn -1 0 -0
vn -1 0 -0
vn -1 0 -0
vn 0 -0 -1
vn 0 -0 -1
vn 0 -0 -1
vn 0 0 -1
vn 0 0 -1
vn 0 0 -1
vn 0 -1 -0
vn 0 -1 -0
vn 0 -1 -0
vn 0 -1 -0
vn 0 -1 -0
vn 0 -1 -0
vn -1 0 -0
vn -1 0 -0
vn -1 0 -0
vn -1 0 -0
vn -1 0 -0
vn -1 0 -0
vn 0 0 -1
vn 0 0 -1
vn 0 0 -1
vn 0 0 -1
vn 0 0 -1
vn 0 0 -1
vn 1 0 -0
vn 1 0 -0
vn 1 0 -0
vn 1 -0 -0
vn 1 -0 -0
vn 1 -0 -0
vn 0 0 1
vn 0 0 1
vn 0 0 1
vn 0 0 1
vn 0 0 1
vn 0 0 1
vn 0 -1 -0
vn 0 -1 -0
vn 0 -1 -0
vn 0 -1 -0
vn 0 -1 -0
vn 0 -1 -0
vn 1 0 -0
vn 1 0 -0
vn 1 0 -0
vn 1 0 -0
vn 1 0 -0
vn 1 0 -0
vn 0 -0 -1
vn 0 -0 -1
vn 0 -0 -1
vn 0 0 -1
vn 0 0 -1
vn 0 0 -1
vn -1 0 -0
vn -1 0 -0
vn -1 0 -0
vn -1 0 -0
vn -1 0 -0
vn -1 0 -0
vn 0 0 1
vn 0 0 1
vn 0 0 1
vn 0 0 1
vn 0 0 1
vn 0 0 1
vn 0 -1 -0
vn 0 -1 -0
vn 0 -1 -0
vn 0 -1 -0
vn 0 -1 -0
vn 0 -1 -0
g blue
usemtl blue
s off
f 9/92/1 10/90/2 1/89/3
f 9/92/4 18/93/5 10/90/6
f 1/89/7 11/87/8 2/86/9
f 1/89/10 10/90/11 11/87/12
f 2/86/13 12/77/14 3/76/15
f 2/86/16 11/87/17 12/77/18
f 3/76/19 13/67/20 4/66/21
f 3/76/22 12/77/23 13/67/24
f 4/126/25 14/152/26 5/125/27
f 4/126/28 13/153/29 14/152/30
f 5/125/31 15/151/32 6/124/33
f 5/125/34 14/152/35 15/151/36
f 6/124/37 16/150/38 7/123/39
f 6/124/40 15/151/41 16/150/42
f 7/123/43 23/149/44 24/122/45
f 7/123/46 16/150/47 23/149/48
f 55/101/49 8/95/50 64/98/51
f 17/96/52 8/95/53 55/101/54
f 17/96/55 9/92/56 8/95/57
f 18/93/58 9/92/59 17/96/60
f 69/118/61 24/69/62 63/120/63
f 69/118/64 7/70/65 24/69/66
f 68/117/67 7/70/68 69/118/69
f 68/117/70 67/116/71 7/70/72
f 67/116/73 66/115/74 7/70/75
f 66/115/76 65/114/77 7/70/78
f 65/114/79 64/107/80 7/70/81
f 64/107/82 8/102/83 7/70/84
f 8/102/85 9/97/86 7/70/87
f 9/97/88 1/94/89 7/70/90
f 1/94/91 2/91/92 7/70/93
f 2/91/94 3/88/95 7/70/96
f 3/88/97 6/75/98 7/70/99
f 4/85/100 5/82/101 6/75/102
f 3/88/103 4/85/104 6/75/105
f 16/7/106 54/63/107 23/4/108
f 16/7/109 60/61/110 54/63/111
f 15/8/112 60/61/113 16/7/114
f 15/8/115 14/9/116 60/61/117
f 14/9/118 13/10/119 60/61/120
f 13/10/121 12/11/122 60/61/123
f 12/11/124 11/12/125 60/61/126
f 11/12/127 10/13/128 60/61/129
f 10/13/130 18/18/131 60/61/132
f 18/18/133 17/27/134 60/61/135
f 17/27/136 55/32/137 60/61/138
f 55/32/139 56/41/140 60/61/141
f 56/41/142 59/56/143 60/61/144
f 57/46/145 58/51/146 59/56/147
f 56/41/148 57/46/149 59/56/150
f 24/122/151 22/148/152 19/121/153
f 24/122/154 23/149/155 22/148/156
f 24/69/157 19/68/158 20/119/159
f 63/120/160 24/69/161 20/119/162
f 21/185/163 63/155/164 20/154/165
f 54/186/166 63/155/167 21/185/168
f 54/63/169 21/62/170 22/3/171
f 23/4/172 54/63/173 22/3/174
f 22/6/175 21/65/176 19/5/177
f 21/65/178 20/64/179 19/5/180
f 25/160/181 69/156/182 63/155/183
f 26/161/184 69/156/185 25/160/186
f 60/187/187 27/181/188 28/180/189
f 60/187/190 28/180/191 54/186/192
f 28/180/193 25/160/194 63/155/195
f 54/186/196 28/180/197 63/155/198
f 26/161/199 29/162/200 69/156/201
f 29/162/202 68/157/203 69/156/204
f 60/187/205 30/182/206 27/181/207
f 59/188/208 30/182/209 60/187/210
f 29/162/211 31/163/212 68/157/213
f 31/163/214 67/158/215 68/157/216
f 59/188/217 32/183/218 30/182/219
f 58/189/220 32/183/221 59/188/222
f 31/163/223 33/164/224 67/158/225
f 33/164/226 66/159/227 67/158/228
f 58/189/229 34/184/230 32/183/231
f 57/190/232 34/184/233 58/189/234
f 33/109/235 35/104/236 66/108/237
f 35/104/238 65/103/239 66/108/240
f 57/111/241 36/105/242 34/110/243
f 56/106/244 36/105/245 57/111/246
f 35/104/247 64/98/248 65/103/249
f 37/99/250 64/98/251 35/104/252
f 37/191/253 38/192/254 64/195/255
f 38/192/256 55/196/257 64/195/258
f 55/101/259 38/100/260 36/105/261
f 56/106/262 55/101/263 36/105/264
f 39/137/265 26/144/266 25/145/267
f 40/136/268 26/144/269 39/137/270
f 27/178/271 41/167/272 42/168/273
f 27/178/274 42/168/275 28/179/276
f 42/2/277 39/1/278 25/14/279
f 28/15/280 42/2/281 25/14/282
f 29/143/283 26/144/284 40/136/285
f 43/135/286 29/143/287 40/136/288
f 30/177/289 44/166/290 41/167/291
f 27/178/292 30/177/293 41/167/294
f 31/142/295 29/143/296 43/135/297
f 45/134/298 31/142/299 43/135/300
f 32/176/301 46/165/302 44/166/303
f 30/177/304 32/176/305 44/166/306
f 33/141/307 31/142/308 45/134/309
f 47/133/310 33/141/311 45/134/312
f 34/175/313 48/147/314 46/165/315
f 32/176/316 34/175/317 46/165/318
f 35/140/319 33/141/320 47/133/321
f 70/129/322 35/140/323 47/133/324
f 36/174/325 61/146/326 48/147/327
f 34/175/328 36/174/329 48/147/330
f 62/139/331 35/140/332 70/129/333
f 62/139/334 37/138/335 35/140/336
f 53/170/337 37/132/338 62/131/339
f 38/171/340 37/132/341 53/170/342
f 36/174/343 53/173/344 61/146/345
f 38/172/346 53/173/347 36/174/348
f 50/113/349 49/112/350 52/127/351
f 51/128/352 50/113/353 52/127/354
f 53/170/355 62/131/356 70/130/357
f 61/169/358 53/170/359 70/130/360
f 76/60/361 74/71/362 71/59/363
f 76/60/364 75/72/365 74/71/366
f 72/28/367 76/26/368 71/25/369
f 78/29/370 76/26/371 72/28/372
f 73/19/373 78/17/374 72/16/375
f 77/20/376 78/17/377 73/19/378
f 77/222/379 73/221/380 74/213/381
f 75/214/382 77/222/383 74/213/384
f 74/218/385 73/226/386 71/217/387
f 73/226/388 72/225/389 71/217/390
f 83/79/391 84/74/392 79/73/393
f 82/78/394 83/79/395 79/73/396
f 86/194/397 80/193/398 79/203/399
f 84/204/400 86/194/401 79/203/402
f 85/220/403 81/219/404 80/205/405
f 86/206/406 85/220/407 80/205/408
f 81/30/409 83/34/410 82/33/411
f 85/31/412 83/34/413 81/30/414
f 81/216/415 82/224/416 80/215/417
f 80/215/418 82/224/419 79/223/420
f 91/55/421 92/58/422 87/57/423
f 91/55/424 87/57/425 90/54/426
f 94/38/427 88/37/428 87/35/429
f 92/36/430 94/38/431 87/35/432
f 88/47/433 93/45/434 89/44/435
f 94/48/436 93/45/437 88/47/438
f 89/52/439 91/50/440 90/49/441
f 93/53/442 91/50/443 89/52/444
f 88/210/445 89/209/446 90/199/447
f 87/200/448 88/210/449 90/199/450
f 95/207/451 100/208/452 98/197/453
f 100/208/454 99/198/455 98/197/456
f 96/80/457 100/84/458 95/83/459
f 102/81/460 100/84/461 96/80/462
f 102/43/463 96/42/464 97/39/465
f 101/40/466 102/43/467 97/39/468
f 101/22/469 97/21/470 98/23/471
f 99/24/472 101/22/473 98/23/474
f 97/201/475 95/212/476 98/211/477
f 96/202/478 95/212/479 97/201/480
