####
#
#	OBJ File Generated by LightWave3D
#	LightWave3D OBJ Export v2.3
#
####
o axis.obj
mtllib axis.mtl
g default
v -50 -0.5 0.5
v -50 0.5 0.5
v 50 0.5 0.5
v 50 -0.5 0.5
v -50 -0.5 -0.5
v -50 0.5 -0.5
v 50 0.5 -0.5
v 50 -0.5 -0.5
v 50 -1.98 0.6534
v 50 1.98 0.6534
v 50 1.98 -0.6534
v 50 -1.98 -0.6534
v 55 0 -0.6534
v 55 0 0.6534
v 0.5 -50 0.5
v -0.5 -50 0.5
v -0.5 50 0.5
v 0.5 50 0.5
v 0.5 -50 -0.5
v -0.5 -50 -0.5
v -0.5 50 -0.5
v 0.5 50 -0.5
v 1.98 50 0.6534
v -1.98 50 0.6534
v -1.98 50 -0.6534
v 1.98 50 -0.6534
v -1.01033e-014 55 -0.6534
v -1.01033e-014 55 0.6534
v 0.5 0.5 -50
v 0.5 -0.5 -50
v 0.5 -0.5 50
v 0.5 0.5 50
v -0.5 0.5 -50
v -0.5 -0.5 -50
v -0.5 -0.5 50
v -0.5 0.5 50
v 0.6534 1.98 50
v 0.6534 -1.98 50
v -0.6534 -1.98 50
v -0.6534 1.98 50
v -0.6534 -1.67989e-014 55
v 0.6534 -1.68789e-014 55
vt 0.150299 0.320877
vt 0.150299 0.322014
vt 0.150299 0.322033
vt 0.150299 0.323171
vt 0.150299 0.320298
vt 0.150299 0.320569
vt 0.150299 0.320587
vt 0.150299 0.320858
vt 0.151725 0.321446
vt 0.151725 0.322602
vt 0.151744 0.320877
vt 0.151744 0.321244
vt 0.153171 0.320877
vt 0.153171 0.321244
vt 0.15319 0.320877
vt 0.15319 0.321244
vt 0.154617 0.320877
vt 0.154617 0.321244
vt 0.154635 0.322033
vt 0.154635 0.323171
vt 0.154678 0.322459
vt 0.154678 0.322746
vt 0.154959 0.322459
vt 0.154959 0.322746
vt 0.155002 0.322033
vt 0.155002 0.323171
vt 0.179192 0.320298
vt 0.179192 0.320569
vt 0.179192 0.320587
vt 0.179192 0.320858
vt 0.179211 0.320298
vt 0.179211 0.320569
vt 0.179211 0.320587
vt 0.179211 0.320858
vt 0.208105 0.320298
vt 0.208105 0.320569
vt 0.208105 0.320587
vt 0.208105 0.320858
vt 0.208124 0.320009
vt 0.208124 0.32028
vt 0.208395 0.320009
vt 0.208395 0.32028
vt 0.46781 0.48181
vt 0.46781 0.521662
vt 0.46781 0.521688
vt 0.46781 0.56154
vt 0.468184 0.48181
vt 0.468184 0.521662
vt 0.468184 0.521688
vt 0.468184 0.56154
vt 0.468209 0.521688
vt 0.468209 0.56154
vt 0.468583 0.521688
vt 0.468583 0.56154
vt 0.468741 0.485797
vt 0.469007 0.521688
vt 0.469007 0.56154
vt 0.46938 0.521688
vt 0.46938 0.56154
vt 0.469526 0.487765
vt 0.47031 0.485797
vt 0.470336 0.485797
vt 0.471121 0.487765
vt 0.471905 0.485797
vt 0.471931 0.485797
vt 0.471931 0.487765
vt 0.472438 0.485797
vt 0.472438 0.487765
vt 0.472463 0.485797
vt 0.472463 0.487765
vt 0.472969 0.485797
vt 0.472969 0.487765
vt 0.474191 0.482607
vt 0.474191 0.483113
vt 0.474778 0.482666
vt 0.474778 0.483054
vt 0.475174 0.482666
vt 0.475174 0.483054
vt 0.47576 0.482607
vt 0.47576 0.483113
vt 0.547568 0.48141
vt 0.547568 0.481784
vt 0.547941 0.48141
vt 0.547941 0.481784
vt 0.820007 0.470006
vt 0.820007 0.470192
vt 0.820204 0.472181
vt 0.820204 0.473157
vt 0.820402 0.489974
vt 0.820402 0.50973
vt 0.820455 0.472181
vt 0.820455 0.473157
vt 0.820587 0.489974
vt 0.820587 0.50973
vt 0.820797 0.489974
vt 0.820797 0.50973
vt 0.820982 0.489974
vt 0.820982 0.50973
vt 0.821193 0.471779
vt 0.822168 0.47139
vt 0.822168 0.472168
vt 0.822181 0.471779
vt 0.822576 0.472181
vt 0.822576 0.473157
vt 0.822827 0.472181
vt 0.822827 0.473157
vt 0.823157 0.47139
vt 0.823157 0.472168
vt 0.823433 0.47139
vt 0.823433 0.472168
vt 0.823462 0.471681
vt 0.823462 0.471877
vt 0.823655 0.471681
vt 0.823655 0.471877
vt 0.823684 0.47139
vt 0.823684 0.472168
vt 0.839763 0.470006
vt 0.839763 0.470192
vt 0.839776 0.470006
vt 0.839776 0.470192
vt 0.859532 0.470006
vt 0.859532 0.470192
vt 0.859743 0.470204
vt 0.859743 0.470389
vt 0.859928 0.470204
vt 0.859928 0.470389
vn 0 0 1
vn 0 0 1
vn 0 0 1
vn 0 0 1
vn -1 0 -0
vn -1 0 -0
vn -1 0 -0
vn -1 0 -0
vn 0 1 -0
vn 0 1 -0
vn 0 1 -0
vn 0 1 -0
vn 0 -1 -0
vn 0 -1 -0
vn 0 -1 -0
vn 0 -1 -0
vn 0 0 -1
vn 0 0 -1
vn 0 0 -1
vn 0 0 -1
vn -1 0 -0
vn -1 0 -0
vn -1 0 -0
vn -1 0 -0
vn -1 0 -0
vn -1 0 -0
vn -1 0 -0
vn -1 0 -0
vn -1 0 -0
vn -1 0 -0
vn -1 0 -0
vn -1 0 -0
vn -1 0 -0
vn -1 0 -0
vn -1 0 -0
vn -1 0 -0
vn 0 0 1
vn 0 0 1
vn 0 0 1
vn 0.368182 0.929754 -0
vn 0.368182 0.929754 -0
vn 0.368182 0.929754 -0
vn 0.368182 0.929754 -0
vn 0 0 -1
vn 0 0 -1
vn 0 0 -1
vn 0.368182 -0.929754 -0
vn 0.368182 -0.929754 -0
vn 0.368182 -0.929754 -0
vn 0.368182 -0.929754 -0
vn 0 0 1
vn 0 0 1
vn 0 0 1
vn 0 0 1
vn 0 -1 -0
vn 0 -1 -0
vn 0 -1 -0
vn 0 -1 -0
vn -1 0 -0
vn -1 0 -0
vn -1 0 -0
vn -1 0 -0
vn 1 0 -0
vn 1 0 -0
vn 1 0 -0
vn 1 0 -0
vn 0 0 -1
vn 0 0 -1
vn 0 0 -1
vn 0 0 -1
vn 0 -1 -0
vn 0 -1 -0
vn 0 -1 -0
vn 0 -1 -0
vn 0 -1 -0
vn 0 -1 -0
vn 0 -1 -0
vn 0 -1 -0
vn 0 -1 -0
vn 0 -1 -0
vn 0 -1 -0
vn 0 -1 -0
vn 0 -1 -0
vn 0 -1 -0
vn 0 -1 -0
vn 0 -1 -0
vn 0 0 1
vn 0 0 1
vn 0 0 1
vn -0.929754 0.368182 -0
vn -0.929754 0.368182 -0
vn -0.929754 0.368182 -0
vn -0.929754 0.368182 -0
vn 0 0 -1
vn 0 0 -1
vn 0 0 -1
vn 0.929754 0.368182 -0
vn 0.929754 0.368182 -0
vn 0.929754 0.368182 -0
vn 0.929754 0.368182 -0
vn 1 0 -0
vn 1 0 -0
vn 1 0 -0
vn 1 0 -0
vn 0 0 -1
vn 0 0 -1
vn 0 0 -1
vn 0 0 -1
vn 0 -1 -0
vn 0 -1 -0
vn 0 -1 -0
vn 0 -1 -0
vn 0 1 -0
vn 0 1 -0
vn 0 1 -0
vn 0 1 -0
vn -1 0 -0
vn -1 0 -0
vn -1 0 -0
vn -1 0 -0
vn 0 0 -1
vn 0 0 -1
vn 0 0 -1
vn 0 0 -1
vn 0 0 -1
vn 0 0 -1
vn 0 0 -1
vn 0 0 -1
vn 0 0 -1
vn 0 0 -1
vn 0 0 -1
vn 0 0 -1
vn 0 0 -1
vn 0 0 -1
vn 0 0 -1
vn 0 0 -1
vn 1 0 -0
vn 1 0 -0
vn 1 0 -0
vn -5.69315e-017 -0.929754 0.368182
vn -5.69315e-017 -0.929754 0.368182
vn -5.69315e-017 -0.929754 0.368182
vn -5.69315e-017 -0.929754 0.368182
vn -1 0 -0
vn -1 0 -0
vn -1 0 -0
vn 5.69315e-017 0.929754 0.368182
vn 5.69315e-017 0.929754 0.368182
vn 5.69315e-017 0.929754 0.368182
vn 5.69315e-017 0.929754 0.368182
g Surf-rgb
usemtl Surf-rgb
s 1
f 4/29/1 3/30/2 2/8/3 1/7/4
f 2/40/5 6/42/6 5/41/7 1/39/8
f 3/35/9 7/36/10 6/32/11 2/31/12
f 5/34/13 8/38/14 4/37/15 1/33/16
f 6/6/17 7/28/18 8/27/19 5/5/20
f 10/20/21 3/22/22 4/21/23 9/19/24
f 11/26/25 7/24/26 3/22/27 10/20/28
f 8/23/29 7/24/30 11/26/31 12/25/32
f 4/21/33 8/23/34 12/25/35 9/19/36
f 14/10/37 10/4/38 9/3/39
f 13/14/40 11/12/41 10/11/42 14/13/43
f 12/1/44 11/2/45 13/9/46
f 9/15/47 12/16/48 13/18/49 14/17/50
f 18/54/51 17/52/52 16/51/53 15/53/54
f 16/81/55 20/82/56 19/84/57 15/83/58
f 17/46/59 21/50/60 20/49/61 16/45/62
f 19/58/63 22/59/64 18/57/65 15/56/66
f 20/43/67 21/44/68 22/48/69 19/47/70
f 24/73/71 17/75/72 18/77/73 23/79/74
f 25/74/75 21/76/76 17/75/77 24/73/78
f 22/78/79 21/76/80 25/74/81 26/80/82
f 18/77/83 22/78/84 26/80/85 23/79/86
f 28/60/87 24/55/88 23/61/89
f 27/72/90 25/71/91 24/69/92 28/70/93
f 26/64/94 25/62/95 27/63/96
f 23/65/97 26/67/98 27/68/99 28/66/100
f 32/120/101 31/119/102 30/121/103 29/122/104
f 30/125/105 34/123/106 33/124/107 29/126/108
f 31/97/109 35/95/110 34/96/111 30/98/112
f 33/90/113 36/89/114 32/93/115 29/94/116
f 34/117/117 35/85/118 36/86/119 33/118/120
f 38/115/121 31/113/122 32/114/123 37/116/124
f 39/109/125 35/111/126 31/113/127 38/115/128
f 36/112/129 35/111/130 39/109/131 40/110/132
f 32/114/133 36/112/134 40/110/135 37/116/136
f 42/99/137 38/100/138 37/101/139
f 41/103/140 39/104/141 38/106/142 42/105/143
f 40/108/144 39/107/145 41/102/146
f 37/92/147 40/88/148 41/87/149 42/91/150
