####
#
#	OBJ File Generated by LightWave3D
#	LightWave3D OBJ Export v2.3
#
####
o large_sidewalk-corner.obj
mtllib large_sidewalk-corner.mtl
g default
v -4.95001 0.131234 4.87
v -4.86999 0.131234 4.95
v -4.87554 0.17 4.87554
v 1.04998 0.17 -1.05
v 4.94998 0.131234 4.95
v 4.94998 0.17 4.88108
v 4.94998 0.17 -1.05
v 1.04998 0.17 -4.95
v -4.95001 0.131234 -1.05
v -4.8811 0.17 -1.05
v 1.05001 0.17 4.88108
v 1.05001 0.131234 4.95
v -4.95001 0.131234 -4.95
v -4.8811 0.17 -4.95
v 0.950014 0.224 -0.950001
v 0.990015 0.276 -0.990001
v 0.950014 0.224 -4.95
v 0.990015 0.276 -4.95
v 4.95001 0.224 -0.950001
v 4.95001 0.276 -0.990001
v 4.95001 0.276 -4.95
v -4.95001 0 -4.95
v -4.95001 0 -1.05
v -4.95001 0 4.87
v -4.86999 0 4.95
v 4.94998 0 4.95
v 1.05001 0 4.95
v 0.950014 0 -0.950001
v 0.950014 0 -4.95
v 4.95001 0 -0.950001
vn -0.440138 0.782598 0.440248
vn -0.440138 0.782598 0.440248
vn -0.440138 0.782598 0.440248
vn -0.490303 0.871552 -0
vn -0.490303 0.871552 -0
vn -0.490303 0.871552 -0
vn -0.490303 0.871552 -0
vn -0.490303 0.871552 -0
vn -0.490303 0.871552 -0
vn 0 1 0
vn 0 1 0
vn 0 1 0
vn 0 1 -0
vn 0 1 -0
vn 0 1 -0
vn 0 1 -0
vn 0 1 -0
vn 0 1 -0
vn 0 1 0
vn 0 1 0
vn 0 1 0
vn 0 0.871583 0.490249
vn 0 0.871583 0.490249
vn 0 0.871583 0.490249
vn 0 0.871583 0.490249
vn 0 0.871583 0.490249
vn 0 0.871583 0.490249
vn -0.461768 0.887001 0.000433313
vn -0.461768 0.887001 0.000433313
vn -0.461768 0.887001 0.000433313
vn -0.490303 0.871552 -0
vn -0.490303 0.871552 -0
vn -0.490303 0.871552 -0
vn 0 0.871583 0.490249
vn 0 0.871583 0.490249
vn 0 0.871583 0.490249
vn -0.000431797 0.886975 0.461817
vn -0.000431797 0.886975 0.461817
vn -0.000431797 0.886975 0.461817
vn 0 1 -0
vn 0 1 -0
vn 0 1 -0
vn 0 1 -0
vn 0 1 -0
vn 0 1 -0
vn -0.792617 0.60972 -0
vn -0.792617 0.60972 -0
vn -0.792617 0.60972 -0
vn -0.792617 0.60972 -0
vn -0.792617 0.60972 -0
vn -0.792617 0.60972 -0
vn 0 0.609711 0.792624
vn 0 0.609711 0.792624
vn 0 0.609711 0.792624
vn 0 0.609711 0.792624
vn 0 0.609711 0.792624
vn 0 0.609711 0.792624
vn 0 1 -0
vn 0 1 -0
vn 0 1 -0
vn 0 1 -0
vn 0 1 -0
vn 0 1 -0
vn -1 0 -0
vn -1 0 -0
vn -1 0 -0
vn -1 0 -0
vn -1 0 -0
vn -1 0 -0
vn -1 0 -0
vn -1 0 -0
vn -1 0 -0
vn -1 0 -0
vn -1 0 -0
vn -1 0 -0
vn -0.707018 0 0.707195
vn -0.707018 0 0.707195
vn -0.707018 0 0.707195
vn -0.707018 0 0.707195
vn -0.707018 0 0.707195
vn -0.707018 0 0.707195
vn 0 0 1
vn 0 0 1
vn 0 0 1
vn 0 0 1
vn 0 0 1
vn 0 0 1
vn 0 0 1
vn 0 0 1
vn 0 0 1
vn 0 0 1
vn 0 0 1
vn 0 0 1
vn -1 0 -0
vn -1 0 -0
vn -1 0 -0
vn -1 0 -0
vn -1 0 -0
vn -1 0 -0
vn 0 0 1
vn 0 0 1
vn 0 0 1
vn 0 0 1
vn 0 0 1
vn 0 0 1
g Default
usemtl Default
s off
f 3//1 1//2 2//3
f 10//4 14//5 13//6
f 10//7 13//8 9//9
f 8//10 14//11 4//12
f 14//13 10//14 4//15
f 6//16 7//17 11//18
f 7//19 4//20 11//21
f 5//22 6//23 12//24
f 6//25 11//26 12//27
f 3//28 10//29 1//30
f 10//31 9//32 1//33
f 11//34 2//35 12//36
f 11//37 3//38 2//39
f 10//40 3//41 11//42
f 4//43 10//44 11//45
f 16//46 17//47 15//48
f 16//49 18//50 17//51
f 19//52 16//53 15//54
f 20//55 16//56 19//57
f 21//58 18//59 16//60
f 20//61 21//62 16//63
f 9//64 13//65 23//66
f 13//67 22//68 23//69
f 1//70 9//71 24//72
f 9//73 23//74 24//75
f 2//76 1//77 25//78
f 1//79 24//80 25//81
f 5//82 12//83 27//84
f 26//85 5//86 27//87
f 12//88 2//89 25//90
f 12//91 25//92 27//93
f 15//94 17//95 29//96
f 15//97 29//98 28//99
f 19//100 15//101 30//102
f 30//103 15//104 28//105
