####
#
#	OBJ File Generated by LightWave3D
#	LightWave3D OBJ Export v2.3
#
####
o creeper.obj
mtllib creeper.mtl
g default
v -4 18 4
v -4 26 4
v 4 26 4
v 4 18 4
v -4 18 -4
v -4 26 -4
v 4 26 -4
v 4 18 -4
v -4 6 2
v -4 18 2
v 4 18 2
v 4 6 2
v -4 6 -2
v -4 18 -2
v 4 18 -2
v 4 6 -2
v 0 0 5
v 0 6 5
v -4 6 5
v -4 0 5
v 0 0 1
v 0 6 1
v -4 6 1
v -4 0 1
v 0 0 -5
v 0 6 -5
v -4 6 -5
v -4 0 -5
v 0 0 -1
v 0 6 -1
v -4 6 -1
v -4 0 -1
v 4 0 5
v 4 6 5
v 8.88178e-016 6 5
v 8.88178e-016 0 5
v 4 0 1
v 4 6 1
v 8.88178e-016 6 1
v 8.88178e-016 0 1
v 4 0 -5
v 4 6 -5
v 8.88178e-016 6 -5
v 8.88178e-016 0 -5
v 4 0 -1
v 4 6 -1
v 8.88178e-016 6 -1
v 8.88178e-016 0 -1
vt 0 0.608333
vt 0 0.800556
vt 0.00833334 0.356667
vt 0.00833334 0.496852
vt 0.0894444 0.356667
vt 0.0894444 0.496852
vt 0.103889 0.495185
vt 0.103889 0.36
vt 0.107222 0.505556
vt 0.107222 0.596667
vt 0.193333 0.505556
vt 0.193333 0.596667
vt 0.195 0.495185
vt 0.195 0.36
vt 0.197222 0.608333
vt 0.197222 0.800556
vt 0.2 0.600667
vt 0.2 0.798889
vt 0.203889 0.507222
vt 0.203889 0.598333
vt 0.206667 0.805
vt 0.206667 0.997222
vt 0.208889 0.36
vt 0.208889 0.493519
vt 0.29 0.507222
vt 0.29 0.598333
vt 0.295 0.36
vt 0.295 0.493519
vt 0.307222 0.36
vt 0.307222 0.491852
vt 0.393333 0.36
vt 0.393333 0.491852
vt 0.393889 0.805
vt 0.393889 0.997222
vt 0.398222 0.600667
vt 0.398222 0.798889
vt 0.4 0.205
vt 0.4 0.498333
vt 0.401422 0.601433
vt 0.401422 0.799656
vt 0.404444 0.808333
vt 0.404444 0.995556
vt 0.501111 0.205
vt 0.501111 0.498333
vt 0.501111 0.498333
vt 0.51 0.510556
vt 0.51 0.596667
vt 0.591667 0.808333
vt 0.591667 0.995556
vt 0.597644 0.601433
vt 0.597644 0.799656
vt 0.601667 0.603333
vt 0.601667 0.800556
vt 0.692222 0.510556
vt 0.692222 0.596667
vt 0.698333 0.205
vt 0.698333 0.498333
vt 0.698333 0.205
vt 0.698333 0.498333
vt 0.706667 0.507222
vt 0.706667 0.593333
vt 0.793889 0.603333
vt 0.793889 0.800556
vt 0.799444 0.205
vt 0.799444 0.498333
vt 0.888889 0.507222
vt 0.888889 0.593333
vt 0.996667 0.205
vt 0.996667 0.498333
vn 0 0 1
vn 0 0 1
vn 0 0 1
vn 0 0 1
vn -1 0 -0
vn -1 0 -0
vn -1 0 -0
vn -1 0 -0
vn 0 1 -0
vn 0 1 -0
vn 0 1 -0
vn 0 1 -0
vn 1 0 -0
vn 1 0 -0
vn 1 0 -0
vn 1 0 -0
vn 0 -1 -0
vn 0 -1 -0
vn 0 -1 -0
vn 0 -1 -0
vn 0 0 -1
vn 0 0 -1
vn 0 0 -1
vn 0 0 -1
vn 0 0 1
vn 0 0 1
vn 0 0 1
vn 0 0 1
vn -1 0 -0
vn -1 0 -0
vn -1 0 -0
vn -1 0 -0
vn 0 1 -0
vn 0 1 -0
vn 0 1 -0
vn 0 1 -0
vn 1 0 -0
vn 1 0 -0
vn 1 0 -0
vn 1 0 -0
vn 0 -1 -0
vn 0 -1 -0
vn 0 -1 -0
vn 0 -1 -0
vn 0 0 -1
vn 0 0 -1
vn 0 0 -1
vn 0 0 -1
vn 0 0 1
vn 0 0 1
vn 0 0 1
vn 0 0 1
vn 1 0 0
vn 1 0 0
vn 1 0 0
vn 1 0 0
vn 0 1 -0
vn 0 1 -0
vn 0 1 -0
vn 0 1 -0
vn -1 0 -0
vn -1 0 -0
vn -1 0 -0
vn -1 0 -0
vn -0 -1 0
vn -0 -1 0
vn -0 -1 0
vn -0 -1 0
vn 0 0 -1
vn 0 0 -1
vn 0 0 -1
vn 0 0 -1
vn 0 -0 -1
vn 0 -0 -1
vn 0 -0 -1
vn 0 -0 -1
vn 1 -0 -0
vn 1 -0 -0
vn 1 -0 -0
vn 1 -0 -0
vn 0 1 -0
vn 0 1 -0
vn 0 1 -0
vn 0 1 -0
vn -1 0 -0
vn -1 0 -0
vn -1 0 -0
vn -1 0 -0
vn -0 -1 0
vn -0 -1 0
vn -0 -1 0
vn -0 -1 0
vn 0 0 1
vn 0 0 1
vn 0 0 1
vn 0 0 1
vn 0 0 1
vn 0 0 1
vn 0 0 1
vn 0 0 1
vn 1 0 0
vn 1 0 0
vn 1 0 0
vn 1 0 0
vn 0 1 -0
vn 0 1 -0
vn 0 1 -0
vn 0 1 -0
vn -1 0 -0
vn -1 0 -0
vn -1 0 -0
vn -1 0 -0
vn -0 -1 0
vn -0 -1 0
vn -0 -1 0
vn -0 -1 0
vn 0 0 -1
vn 0 0 -1
vn 0 0 -1
vn 0 0 -1
vn 0 -0 -1
vn 0 -0 -1
vn 0 -0 -1
vn 0 -0 -1
vn 1 -0 -0
vn 1 -0 -0
vn 1 -0 -0
vn 1 -0 -0
vn 0 1 -0
vn 0 1 -0
vn 0 1 -0
vn 0 1 -0
vn -1 0 -0
vn -1 0 -0
vn -1 0 -0
vn -1 0 -0
vn -0 -1 0
vn -0 -1 0
vn -0 -1 0
vn -0 -1 0
vn 0 0 1
vn 0 0 1
vn 0 0 1
vn 0 0 1
g SURF-creeper
usemtl SURF-creeper
s off
f 4/35/1 3/36/2 2/18/3 1/17/4
f 2/2/5 6/16/6 5/15/7 1/1/8
f 3/33/9 7/34/10 6/22/11 2/21/12
f 8/50/13 7/51/14 3/40/15 4/39/16
f 5/42/17 8/49/18 4/48/19 1/41/20
f 6/53/21 7/63/22 8/62/23 5/52/24
f 12/58/25 11/59/26 10/45/27 9/43/28
f 10/38/29 14/44/30 13/43/31 9/37/32
f 11/54/33 15/55/34 14/47/35 10/46/36
f 16/64/37 15/65/38 11/57/39 12/56/40
f 13/61/41 16/67/42 12/66/43 9/60/44
f 14/65/45 15/69/46 16/68/47 13/64/48
f 17/14/49 18/13/50 19/7/51 20/8/52
f 17/23/53 21/27/54 22/28/55 18/24/56
f 18/11/57 22/12/58 23/10/59 19/9/60
f 20/3/61 19/4/62 23/6/63 24/5/64
f 17/25/65 20/19/66 24/20/67 21/26/68
f 21/31/69 24/29/70 23/30/71 22/32/72
f 28/8/73 27/7/74 26/13/75 25/14/76
f 26/24/77 30/28/78 29/27/79 25/23/80
f 27/9/81 31/10/82 30/12/83 26/11/84
f 32/5/85 31/6/86 27/4/87 28/3/88
f 29/26/89 32/20/90 28/19/91 25/25/92
f 30/32/93 31/30/94 32/29/95 29/31/96
f 33/14/97 34/13/98 35/7/99 36/8/100
f 33/23/101 37/27/102 38/28/103 34/24/104
f 34/11/105 38/12/106 39/10/107 35/9/108
f 36/3/109 35/4/110 39/6/111 40/5/112
f 33/25/113 36/19/114 40/20/115 37/26/116
f 37/31/117 40/29/118 39/30/119 38/32/120
f 44/8/121 43/7/122 42/13/123 41/14/124
f 42/24/125 46/28/126 45/27/127 41/23/128
f 43/9/129 47/10/130 46/12/131 42/11/132
f 48/5/133 47/6/134 43/4/135 44/3/136
f 45/26/137 48/20/138 44/19/139 41/25/140
f 46/32/141 47/30/142 48/29/143 45/31/144
