####
#
#	OBJ File Generated by LightWave3D
#	LightWave3D OBJ Export v2.3
#
####
o grid_square.obj
mtllib grid_square.mtl
g default
v -5 0 5
v 5 0 5
v 5 0 -5
v -5 0 -5
v 4.95 0 4.95
v -4.95 0 4.95
v -4.95 0 -4.95
v 4.95 0 -4.95
vt 0 0
vt 0 1
vt 0.00500003 0.00500003
vt 0.00500003 0.995
vt 0.995 0.00500003
vt 0.995 0.995
vt 1 0
vt 1 1
vn 0 1 0
vn 0 1 0
vn 0 1 0
vn 0 1 -0
vn 0 1 -0
vn 0 1 -0
vn 0 1 0
vn 0 1 0
vn 0 1 0
vn 0 1 -0
vn 0 1 -0
vn 0 1 -0
vn 0 1 -0
vn 0 1 -0
vn 0 1 -0
vn 0 1 -0
vn 0 1 -0
vn 0 1 -0
vn 0 1 -0
vn 0 1 -0
vn 0 1 -0
vn 0 1 0
vn 0 1 0
vn 0 1 0
vn 0 1 0
vn 0 1 0
vn 0 1 0
vn 0 1 0
vn 0 1 0
vn 0 1 0
g black
usemtl black
s off
f 8//1 6//2 5//3
f 8//4 7//5 6//6
g white
usemtl white
s off
f 3/8/7 5/5/8 2/7/9
f 3/8/10 8/6/11 5/5/12
f 5/5/13 1/1/14 2/7/15
f 5/5/16 6/3/17 1/1/18
f 6/3/19 4/2/20 1/1/21
f 7/4/22 4/2/23 6/3/24
f 3/8/25 7/4/26 8/6/27
f 3/8/28 4/2/29 7/4/30
