####
#
#	OBJ File Generated by LightWave3D
#	LightWave3D OBJ Export v2.3
#
####
o large_sidewalk-corner.obj
mtllib large_sidewalk-corner.mtl
g default
v -4.95001 0.131234 4.87
v -4.86999 0.131234 4.95
v -4.87554 0.17 4.87554
v 1.04998 0.17 -1.05
v 4.94998 0.131234 4.95
v 4.94998 0.17 4.88108
v 4.94998 0.17 -1.05
v 1.04998 0.17 -4.95
v -4.95001 0.131234 -1.05
v -4.8811 0.17 -1.05
v 1.05001 0.17 4.88108
v 1.05001 0.131234 4.95
v -4.95001 0.131234 -4.95
v -4.8811 0.17 -4.95
v 0.950014 0.224 -0.950001
v 0.990015 0.276 -0.990001
v 0.950014 0.224 -4.95
v 0.990015 0.276 -4.95
v 4.95001 0.224 -0.950001
v 4.95001 0.276 -0.990001
v 4.95001 0.276 -4.95
v -4.95001 0 -4.95
v -4.95001 0 -1.05
v -4.95001 0 4.87
v -4.86999 0 4.95
v 4.94998 0 4.95
v 1.05001 0 4.95
v 0.950014 0 -0.950001
v 0.950014 0 -4.95
v 4.95001 0 -0.950001
vn -0.477528 0.848997 0.22621
vn -0.225907 0.849026 0.47762
vn -0.247223 0.936847 0.247384
vn -0.490265 0.871573 -0
vn -0.490265 0.871573 0.000229849
vn -0.202445 0.979294 9.49117e-005
vn -0.253404 0.967361 -0
vn -0.253404 0.967361 -0
vn -0.202445 0.979294 9.49117e-005
vn 0 1 -0
vn 0 1 -0
vn 0 1 -0
vn 0 1 -0
vn 0 0.979294 0.202445
vn 0 0.967361 0.253404
vn 0 0.967361 0.253404
vn 0 0.979294 0.202445
vn 0 0.871573 0.490265
vn 0 0.871573 0.490265
vn -0.490265 0.871573 0.000229849
vn -0.477528 0.848997 0.22621
vn -0.247223 0.936847 0.247384
vn -0.202445 0.979294 9.49117e-005
vn 0 0.979294 0.202445
vn -0.247223 0.936847 0.247384
vn -0.225907 0.849026 0.47762
vn 0 0.871573 0.490265
vn 0 0.979294 0.202445
vn -0.202445 0.979294 9.49117e-005
vn -0.247223 0.936847 0.247384
vn -0.202445 0.979294 9.49117e-005
vn 0 0.979294 0.202445
vn 0 1 -0
vn -0.318776 0.892615 0.318779
vn -0.441747 0.89714 -0
vn -0.946736 0.322012 -0
vn -0.776561 0.528256 0.343364
vn 0 0.897137 0.441752
vn -0.318776 0.892615 0.318779
vn -0.343361 0.528256 0.776562
vn 0 0.322006 0.946738
vn -0.318776 0.892615 0.318779
vn 0 0.897137 0.441752
vn 0 1 -0
vn -0.441747 0.89714 -0
vn -1 0 -0
vn -1 0 -0
vn -1 0 -0
vn -1 0 -0
vn -1 0 -0
vn -1 0 -0
vn -1 0 -0
vn -1 0 -0
vn -0.706989 0 0.707225
vn -0.706989 0 0.707225
vn -0.382606 0 0.923911
vn -0.382606 0 0.923911
vn 0 0 1
vn 0 0 1
vn 0 0 1
vn 0 0 1
vn -0.382606 0 0.923911
vn 0 0 1
vn 0 0 1
vn -0.382606 0 0.923911
vn -1 0 -0
vn -1 0 -0
vn -0.946736 0.322012 -0
vn -0.946736 0.322012 -0
vn 0 0.322006 0.946738
vn 0 0 1
vn 0 0 1
vn 0 0.322006 0.946738
g sidewalk
usemtl sidewalk
s 1
f 1//1 2//2 3//3
f 13//4 9//5 10//6 14//7
f 14//8 10//9 4//10 8//11
f 7//12 4//13 11//14 6//15
f 6//16 11//17 12//18 5//19
f 9//20 1//21 3//22 10//23
f 11//24 3//25 2//26 12//27
f 11//28 10//29 3//30
f 10//31 11//32 4//33
g sidewalk_inner
usemtl sidewalk_inner
s 1
f 16//34 18//35 17//36 15//37
f 20//38 16//39 15//40 19//41
f 16//42 20//43 21//44 18//45
g sidewalk
usemtl sidewalk
s 1
f 13//46 22//47 23//48 9//49
f 9//50 23//51 24//52 1//53
f 1//54 24//55 25//56 2//57
f 27//58 26//59 5//60 12//61
f 25//62 27//63 12//64 2//65
g sidewalk_inner
usemtl sidewalk_inner
s 1
f 29//66 28//67 15//68 17//69
f 15//70 28//71 30//72 19//73
