####
#
#	OBJ File Generated by LightWave3D
#	LightWave3D OBJ Export v2.3
#
####
o backpack_arm01.obj
mtllib backpack_arm01.mtl
g default
v 0.0857 0.000199984 0.01175
v -0.01165 0.000199984 0.01175
v -0.01165 0.000199984 -0.01135
v 0.0857 0.000199984 -0.01135
v 0.0857 0.0101 0.01175
v -0.01165 0.0101 0.01175
v -0.01165 0.0101 -0.01135
v 0.0857 0.0101 -0.01135
v 8.34465e-010 0.000199984 0.01175
v 8.34465e-010 0.0101 0.01175
v 8.34465e-010 0.000199984 -0.01135
v 8.34465e-010 0.0101 -0.01135
v 0.0725 0.0101 0.01175
v 0.0725 0.000199984 0.01175
v 0.0725 0.000199984 -0.01135
v 0.0725 0.0101 -0.01135
v 0.0857 0.0101 -1.08033e-010
v 0.0857 0.000199984 -1.08033e-010
v 0.0725 0.000199984 -1.08033e-010
v 0.0725 0.0101 -1.08033e-010
v -0.01165 0.000199984 -1.08033e-010
v -0.01165 0.0101 -1.08033e-010
v 8.34465e-010 0.000199984 -1.08033e-010
v 8.34465e-010 0.0101 -1.08033e-010
vt 0.405575 0.248127
vt 0.405575 0.257491
vt 0.412039 0.248127
vt 0.412039 0.257491
vt 0.452269 0.248127
vt 0.452269 0.257491
vt 0.459594 0.248127
vt 0.459594 0.257491
vt 0.461755 0.248127
vt 0.461755 0.25289
vt 0.461755 0.257491
vt 0.468219 0.248127
vt 0.468219 0.25289
vt 0.468219 0.257491
vt 0.508449 0.248127
vt 0.508449 0.25289
vt 0.508449 0.257491
vt 0.515774 0.248127
vt 0.515774 0.25289
vt 0.515774 0.257491
vt 0.517934 0.248127
vt 0.517934 0.257491
vt 0.524399 0.248127
vt 0.524399 0.257491
vt 0.564629 0.248127
vt 0.564629 0.257491
vt 0.571953 0.248127
vt 0.571953 0.257491
vt 0.574114 0.248127
vt 0.574114 0.25289
vt 0.574114 0.257491
vt 0.580579 0.248127
vt 0.580579 0.25289
vt 0.580579 0.257491
vt 0.620808 0.248127
vt 0.620808 0.25289
vt 0.620808 0.257491
vt 0.628133 0.248127
vt 0.628133 0.25289
vt 0.628133 0.257491
vt 0.742509 0.248127
vt 0.742509 0.257491
vt 0.747272 0.248127
vt 0.747272 0.257491
vt 0.751873 0.248127
vt 0.751873 0.257491
vt 0.753745 0.248127
vt 0.753745 0.257491
vt 0.758508 0.248127
vt 0.758508 0.257491
vt 0.763109 0.248127
vt 0.763109 0.257491
vn 0 0 1
vn 0 0 1
vn 0 0 1
vn 0 0 1
vn 0 0 -1
vn 0 0 -1
vn 0 0 -1
vn 0 0 -1
vn 0 0 1
vn 0 0 1
vn 0 0 1
vn 0 0 1
vn 0 0 1
vn 0 0 1
vn 0 0 1
vn 0 0 1
vn 0 0 -1
vn 0 0 -1
vn 0 0 -1
vn 0 0 -1
vn 0 0 -1
vn 0 0 -1
vn 0 0 -1
vn 0 0 -1
vn 1 0 -0
vn 1 0 -0
vn 1 0 -0
vn 1 0 -0
vn 1 0 -0
vn 1 0 -0
vn 1 0 -0
vn 1 0 -0
vn 0 -1 -0
vn 0 -1 -0
vn 0 -1 -0
vn 0 -1 -0
vn 0 -1 -0
vn 0 -1 -0
vn 0 -1 -0
vn 0 -1 -0
vn 0 1 -0
vn 0 1 -0
vn 0 1 -0
vn 0 1 -0
vn 0 1 -0
vn 0 1 -0
vn 0 1 -0
vn 0 1 -0
vn -1 0 -0
vn -1 0 -0
vn -1 0 -0
vn -1 0 -0
vn -1 0 -0
vn -1 0 -0
vn -1 0 -0
vn -1 0 -0
vn 0 -1 -0
vn 0 -1 -0
vn 0 -1 -0
vn 0 -1 -0
vn 0 -1 -0
vn 0 -1 -0
vn 0 -1 -0
vn 0 -1 -0
vn 0 1 -0
vn 0 1 -0
vn 0 1 -0
vn 0 1 -0
vn 0 1 -0
vn 0 1 -0
vn 0 1 -0
vn 0 1 -0
vn 0 -1 -0
vn 0 -1 -0
vn 0 -1 -0
vn 0 -1 -0
vn 0 -1 -0
vn 0 -1 -0
vn 0 -1 -0
vn 0 -1 -0
vn 0 1 -0
vn 0 1 -0
vn 0 1 -0
vn 0 1 -0
vn 0 1 -0
vn 0 1 -0
vn 0 1 -0
vn 0 1 -0
g Default
usemtl Default
s 1
f 2/21/1 9/23/2 10/24/3 6/22/4
f 7/2/5 12/4/6 11/3/7 3/1/8
f 14/25/9 13/26/10 10/24/11 9/23/12
f 5/28/13 13/26/14 14/25/15 1/27/16
f 12/4/17 16/6/18 15/5/19 11/3/20
f 4/7/21 15/5/22 16/6/23 8/8/24
f 8/46/25 17/44/26 18/43/27 4/45/28
f 1/41/29 18/43/30 17/44/31 5/42/32
f 19/16/33 18/19/34 1/18/35 14/15/36
f 4/20/37 18/19/38 19/16/39 15/17/40
f 20/36/41 17/39/42 8/40/43 16/37/44
f 5/38/45 17/39/46 20/36/47 13/35/48
f 22/50/49 21/49/50 2/47/51 6/48/52
f 3/51/53 21/49/54 22/50/55 7/52/56
f 23/13/57 21/10/58 3/11/59 11/14/60
f 2/9/61 21/10/62 23/13/63 9/12/64
f 24/33/65 22/30/66 6/29/67 10/32/68
f 7/31/69 22/30/70 24/33/71 12/34/72
f 19/16/73 23/13/74 11/14/75 15/17/76
f 9/12/77 23/13/78 19/16/79 14/15/80
f 12/34/81 24/33/82 20/36/83 16/37/84
f 13/35/85 20/36/86 24/33/87 10/32/88
