####
#
#	OBJ File Generated by LightWave3D
#	LightWave3D OBJ Export v2.3
#
####
o body_highlight.obj
mtllib body_highlight.mtl
g default
v -0.019277 0.621619 -0.065303
v 0 0.618781 -0.064506
v 0 0.620077 -0.073542
v -0.020806 0.623417 -0.074411
v -0.033889 0.626434 -0.067038
v -0.037448 0.629402 -0.076418
v -0.046512 0.634877 -0.068262
v -0.047781 0.636639 -0.077763
v -0.055741 0.642214 -0.0788
v -0.056236 0.641381 -0.069205
v -0.071078 0.656077 -0.069922
v -0.073065 0.661123 -0.080081
v -0.084893 0.673204 -0.063528
v -0.089272 0.682736 -0.072676
v -0.101754 0.695647 -0.055691
v -0.095765 0.68414 -0.049896
v -0.102576 0.686414 -0.029649
v -0.10979 0.698251 -0.032102
v -0.112673 0.691542 -0.010887
v -0.104482 0.68076 -0.012293
v -0.111609 0.682849 0.010203
v -0.103359 0.673241 0.00592001
v -0.101104 0.664627 0.020258
v -0.109158 0.672898 0.027072
v -0.098625 0.657875 0.029341
v -0.106538 0.664937 0.037523
v -0.097698 0.647387 0.054105
v -0.089521 0.642084 0.043552
v -0.080432 0.631541 0.050936
v -0.088732 0.635356 0.062993
v -0.067404 0.620627 0.059645
v -0.075182 0.622363 0.07267
v -0.052469 0.611522 0.067948
v -0.058094 0.61144 0.081639
v -0.040105 0.603115 0.088826
v -0.036314 0.604418 0.074032
v -0.020254 0.59983 0.078731
v -0.022366 0.597731 0.094393
v 0 0.597398 0.082504
v 0 0.594932 0.098921
v 0.022366 0.597731 0.094393
v 0.020254 0.59983 0.078731
v 0.040105 0.603115 0.088826
v 0.036314 0.604418 0.074032
v 0.052469 0.611522 0.067948
v 0.058094 0.61144 0.081639
v 0.075182 0.622363 0.07267
v 0.067404 0.620627 0.059645
v 0.088732 0.635356 0.062993
v 0.080432 0.631541 0.050936
v 0.097698 0.647387 0.054105
v 0.089521 0.642084 0.043552
v 0.098625 0.657875 0.029341
v 0.106538 0.664937 0.037523
v 0.109158 0.672898 0.027072
v 0.101104 0.664627 0.020258
v 0.111609 0.682849 0.010203
v 0.103359 0.673241 0.00592001
v 0.104482 0.68076 -0.012293
v 0.112673 0.691542 -0.010887
v 0.102576 0.686414 -0.029649
v 0.10979 0.698251 -0.032102
v 0.101754 0.695647 -0.055691
v 0.095765 0.68414 -0.049896
v 0.084893 0.673204 -0.063528
v 0.089272 0.682736 -0.072676
v 0.073065 0.661123 -0.080081
v 0.071078 0.656077 -0.069922
v 0.055741 0.642214 -0.0788
v 0.056236 0.641381 -0.069205
v 0.046512 0.634877 -0.068262
v 0.047781 0.636639 -0.077763
v 0.037448 0.629402 -0.076418
v 0.033889 0.626434 -0.067038
v 0.020806 0.623417 -0.074411
v 0.019277 0.621619 -0.065303
v 0 0.598136 0.079585
v 0 0.546189 0.125689
v 0 0.551805 0.125713
v -0.012049 0.531034 0.126483
v -0.008955 0.530789 0.126278
v -0.020205 0.511196 0.127027
v -0.022768 0.512376 0.127174
v 0.012049 0.531034 0.126483
v 0.008955 0.530789 0.126278
v 0.020205 0.511196 0.127027
v 0.022768 0.512376 0.127174
v 0 0.510764 0.1272
v 0 0.513568 0.127095
v -0.013268 0.513568 0.127101
v -0.013268 0.510764 0.1272
v 0.013268 0.513568 0.127101
v 0.013268 0.510764 0.1272
vt 0.5656 0.9528
vt 0.5662 0.9424
vt 0.5673 0.9632
vt 0.5676 0.9342
vt 0.5691 0.929
vt 0.5703 0.9535
vt 0.571 0.9445
vt 0.5715 0.962
vt 0.5719 0.9748
vt 0.5723 0.9375
vt 0.5738 0.933
vt 0.5743 0.9209
vt 0.5754 0.972
vt 0.5791 0.9261
vt 0.5792 0.9831
vt 0.5795 0.9165
vt 0.5818 0.9787
vt 0.5844 0.9224
vt 0.5874 0.9118
vt 0.5887 0.9868
vt 0.5898 0.9818
vt 0.592 0.9182
vt 0.5974 0.9074
vt 0.5985 0.9814
vt 0.5988 0.9862
vt 0.6007 0.9141
vt 0.6034 0.9856
vt 0.6041 0.981
vt 0.6079 0.9038
vt 0.6094 0.985
vt 0.6101 0.9111
vt 0.6115 0.9804
vt 0.6182 0.9011
vt 0.6191 0.984
vt 0.6194 0.9088
vt 0.62 0.9795
vt 0.6313 0.8989
vt 0.6313 0.9069
vt 0.6313 0.9791
vt 0.6313 0.9836
vt 0.6425 0.9795
vt 0.6431 0.9088
vt 0.6434 0.984
vt 0.6443 0.9011
vt 0.651 0.9804
vt 0.6524 0.9111
vt 0.6531 0.985
vt 0.6546 0.9038
vt 0.6584 0.981
vt 0.6591 0.9856
vt 0.6618 0.9141
vt 0.6637 0.9862
vt 0.664 0.9814
vt 0.6651 0.9074
vt 0.6705 0.9182
vt 0.6727 0.9818
vt 0.6738 0.9868
vt 0.6751 0.9118
vt 0.6781 0.9224
vt 0.6807 0.9787
vt 0.683 0.9165
vt 0.6833 0.9831
vt 0.6834 0.9261
vt 0.6871 0.972
vt 0.6882 0.9209
vt 0.6887 0.933
vt 0.6902 0.9375
vt 0.6906 0.9748
vt 0.691 0.962
vt 0.6915 0.9445
vt 0.6922 0.9535
vt 0.6934 0.929
vt 0.6949 0.9342
vt 0.6953 0.9632
vt 0.6963 0.9424
vt 0.6969 0.9528
vt 0.8301 0.8168
vt 0.8313 0.8168
vt 0.8316 0.8119
vt 0.8316 0.8217
vt 0.8535 0.6823
vt 0.8561 0.6809
vt 0.8642 0.678
vt 0.8642 0.6811
vt 0.8643 0.703
vt 0.8674 0.7028
vt 0.8764 0.7199
vt 0.8764 0.7262
vt 0.8776 0.678
vt 0.8776 0.6811
vt 0.8854 0.7028
vt 0.8885 0.703
vt 0.8909 0.678
vt 0.8909 0.6811
vt 0.8967 0.6809
vt 0.8992 0.6823
vn 0.194993 0.969468 0.148695
vn 0 0.989867 0.141995
vn -0 0.98782 0.155603
vn 0.25369 0.953861 0.160593
vn 0.194993 0.969468 0.148695
vn -0 0.98782 0.155603
vn 0.390694 0.912185 0.123598
vn 0.194993 0.969468 0.148695
vn 0.25369 0.953861 0.160593
vn 0.481516 0.870328 0.103303
vn 0.390694 0.912185 0.123598
vn 0.25369 0.953861 0.160593
vn 0.5572 0.8268 0.077
vn 0.390694 0.912185 0.123598
vn 0.481516 0.870328 0.103303
vn 0.565233 0.821348 0.0768045
vn 0.5572 0.8268 0.077
vn 0.481516 0.870328 0.103303
vn 0.565233 0.821348 0.0768045
vn 0.635713 0.762915 0.117602
vn 0.5572 0.8268 0.077
vn 0.635713 0.762915 0.117602
vn 0.625089 0.774186 0.0994982
vn 0.5572 0.8268 0.077
vn 0.738884 0.658485 0.142997
vn 0.625089 0.774186 0.0994982
vn 0.635713 0.762915 0.117602
vn 0.777921 0.604617 0.171105
vn 0.738884 0.658485 0.142997
vn 0.635713 0.762915 0.117602
vn 0.811033 0.556423 0.180607
vn 0.738884 0.658485 0.142997
vn 0.777921 0.604617 0.171105
vn 0.815591 0.549294 0.181898
vn 0.811033 0.556423 0.180607
vn 0.777921 0.604617 0.171105
vn 0.815591 0.549294 0.181898
vn 0.815508 0.539805 0.208702
vn 0.811033 0.556423 0.180607
vn 0.815508 0.539805 0.208702
vn 0.816426 0.534717 0.218007
vn 0.811033 0.556423 0.180607
vn 0.802291 0.544294 0.245097
vn 0.816426 0.534717 0.218007
vn 0.815508 0.539805 0.208702
vn 0.803498 0.541099 0.248199
vn 0.802291 0.544294 0.245097
vn 0.815508 0.539805 0.208702
vn 0.803498 0.541099 0.248199
vn 0.790555 0.559668 0.248586
vn 0.802291 0.544294 0.245097
vn 0.790555 0.559668 0.248586
vn 0.787794 0.575195 0.220298
vn 0.802291 0.544294 0.245097
vn 0.790555 0.559668 0.248586
vn 0.787399 0.579499 0.2102
vn 0.787794 0.575195 0.220298
vn 0.787399 0.579499 0.2102
vn 0.785987 0.58199 0.208596
vn 0.787794 0.575195 0.220298
vn 0.784696 0.578497 0.222699
vn 0.785987 0.58199 0.208596
vn 0.787399 0.579499 0.2102
vn 0.780879 0.580285 0.231294
vn 0.784696 0.578497 0.222699
vn 0.787399 0.579499 0.2102
vn 0.764286 0.600889 0.234096
vn 0.784696 0.578497 0.222699
vn 0.780879 0.580285 0.231294
vn 0.771785 0.589989 0.237195
vn 0.764286 0.600889 0.234096
vn 0.780879 0.580285 0.231294
vn 0.771785 0.589989 0.237195
vn 0.716284 0.661185 0.223095
vn 0.764286 0.600889 0.234096
vn 0.716284 0.661185 0.223095
vn 0.707103 0.675703 0.208401
vn 0.764286 0.600889 0.234096
vn 0.648807 0.737108 0.189002
vn 0.707103 0.675703 0.208401
vn 0.716284 0.661185 0.223095
vn 0.613386 0.760883 0.211695
vn 0.648807 0.737108 0.189002
vn 0.716284 0.661185 0.223095
vn 0.53719 0.824184 0.179297
vn 0.648807 0.737108 0.189002
vn 0.613386 0.760883 0.211695
vn 0.496078 0.845962 0.195591
vn 0.53719 0.824184 0.179297
vn 0.613386 0.760883 0.211695
vn 0.403801 0.899401 0.1674
vn 0.53719 0.824184 0.179297
vn 0.496078 0.845962 0.195591
vn 0.409794 0.895487 0.173698
vn 0.403801 0.899401 0.1674
vn 0.496078 0.845962 0.195591
vn 0.403801 0.899401 0.1674
vn 0.409794 0.895487 0.173698
vn 0.29519 0.942368 0.157495
vn 0.288112 0.944638 0.157006
vn 0.403801 0.899401 0.1674
vn 0.29519 0.942368 0.157495
vn 0.188504 0.970518 0.150203
vn 0.288112 0.944638 0.157006
vn 0.29519 0.942368 0.157495
vn 0.142003 0.978219 0.151403
vn 0.188504 0.970518 0.150203
vn 0.29519 0.942368 0.157495
vn -0 0.989107 0.147201
vn 0.188504 0.970518 0.150203
vn 0.142003 0.978219 0.151403
vn -0 0.988912 0.148502
vn -0 0.989107 0.147201
vn 0.142003 0.978219 0.151403
vn -0 0.989107 0.147201
vn -0 0.988912 0.148502
vn -0.142003 0.978219 0.151403
vn -0.188504 0.970518 0.150203
vn -0 0.989107 0.147201
vn -0.142003 0.978219 0.151403
vn -0.188504 0.970518 0.150203
vn -0.142003 0.978219 0.151403
vn -0.29519 0.942368 0.157495
vn -0.288112 0.944638 0.157006
vn -0.188504 0.970518 0.150203
vn -0.29519 0.942368 0.157495
vn -0.403801 0.899401 0.1674
vn -0.288112 0.944638 0.157006
vn -0.29519 0.942368 0.157495
vn -0.409794 0.895487 0.173698
vn -0.403801 0.899401 0.1674
vn -0.29519 0.942368 0.157495
vn -0.403801 0.899401 0.1674
vn -0.409794 0.895487 0.173698
vn -0.496078 0.845962 0.195591
vn -0.53719 0.824184 0.179297
vn -0.403801 0.899401 0.1674
vn -0.496078 0.845962 0.195591
vn -0.53719 0.824184 0.179297
vn -0.496078 0.845962 0.195591
vn -0.613386 0.760883 0.211695
vn -0.648807 0.737108 0.189002
vn -0.53719 0.824184 0.179297
vn -0.613386 0.760883 0.211695
vn -0.648807 0.737108 0.189002
vn -0.613386 0.760883 0.211695
vn -0.716235 0.661233 0.223111
vn -0.707103 0.675703 0.208401
vn -0.648807 0.737108 0.189002
vn -0.716235 0.661233 0.223111
vn -0.707103 0.675703 0.208401
vn -0.716235 0.661233 0.223111
vn -0.764286 0.600889 0.234096
vn -0.716235 0.661233 0.223111
vn -0.77169 0.590192 0.236997
vn -0.764286 0.600889 0.234096
vn -0.764286 0.600889 0.234096
vn -0.77169 0.590192 0.236997
vn -0.780925 0.580218 0.231307
vn -0.784667 0.578576 0.222591
vn -0.764286 0.600889 0.234096
vn -0.780925 0.580218 0.231307
vn -0.784667 0.578576 0.222591
vn -0.780925 0.580218 0.231307
vn -0.787399 0.579499 0.2102
vn -0.786036 0.582027 0.208309
vn -0.784667 0.578576 0.222591
vn -0.787399 0.579499 0.2102
vn -0.786036 0.582027 0.208309
vn -0.787399 0.579499 0.2102
vn -0.787794 0.575195 0.220298
vn -0.787399 0.579499 0.2102
vn -0.790473 0.559781 0.248592
vn -0.787794 0.575195 0.220298
vn -0.787794 0.575195 0.220298
vn -0.790473 0.559781 0.248592
vn -0.802291 0.544294 0.245097
vn -0.790473 0.559781 0.248592
vn -0.803498 0.541099 0.248199
vn -0.802291 0.544294 0.245097
vn -0.802291 0.544294 0.245097
vn -0.803498 0.541099 0.248199
vn -0.815491 0.539794 0.208798
vn -0.816589 0.534593 0.217697
vn -0.802291 0.544294 0.245097
vn -0.815491 0.539794 0.208798
vn -0.816589 0.534593 0.217697
vn -0.815491 0.539794 0.208798
vn -0.811033 0.556423 0.180607
vn -0.815491 0.539794 0.208798
vn -0.815591 0.549294 0.181898
vn -0.811033 0.556423 0.180607
vn -0.811033 0.556423 0.180607
vn -0.815591 0.549294 0.181898
vn -0.777921 0.604617 0.171105
vn -0.738884 0.658485 0.142997
vn -0.811033 0.556423 0.180607
vn -0.777921 0.604617 0.171105
vn -0.738884 0.658485 0.142997
vn -0.777921 0.604617 0.171105
vn -0.63572 0.762924 0.117504
vn -0.625089 0.774186 0.0994982
vn -0.738884 0.658485 0.142997
vn -0.63572 0.762924 0.117504
vn -0.625089 0.774186 0.0994982
vn -0.63572 0.762924 0.117504
vn -0.557196 0.826794 0.0770994
vn -0.63572 0.762924 0.117504
vn -0.565233 0.821348 0.0768045
vn -0.557196 0.826794 0.0770994
vn -0.557196 0.826794 0.0770994
vn -0.565233 0.821348 0.0768045
vn -0.481521 0.870337 0.103204
vn -0.390699 0.912197 0.1235
vn -0.557196 0.826794 0.0770994
vn -0.481521 0.870337 0.103204
vn -0.390699 0.912197 0.1235
vn -0.481521 0.870337 0.103204
vn -0.25369 0.953861 0.160593
vn -0.194993 0.969468 0.148695
vn -0.390699 0.912197 0.1235
vn -0.25369 0.953861 0.160593
vn -0.194993 0.969468 0.148695
vn -0.25369 0.953861 0.160593
vn -0 0.98782 0.155603
vn 0 0.989867 0.141995
vn -0.194993 0.969468 0.148695
vn -0 0.98782 0.155603
vn 0.0855017 0.965719 0.245105
vn 0 0.969498 0.245099
vn -0 0.968012 0.250903
vn 0 0.969498 0.245099
vn -0.0855017 0.965719 0.245105
vn -0 0.968012 0.250903
vn 0 -0.00219999 0.999998
vn 0 -0.00429996 0.999991
vn 0.0654969 -0.000199991 0.997853
vn 0.0661009 -0.000100001 0.997813
vn 0 -0.00219999 0.999998
vn 0.0654969 -0.000199991 0.997853
vn 0.0661009 -0.000100001 0.997813
vn 0.0654969 -0.000199991 0.997853
vn 0.0623969 0.00169991 0.99805
vn 0.0654969 -0.000199991 0.997853
vn 0.0586983 0.00319991 0.998271
vn 0.0623969 0.00169991 0.99805
vn 0 -0.00429996 0.999991
vn 0 -0.00219999 0.999998
vn -0.0660013 -0 0.99782
vn 0 -0.00219999 0.999998
vn -0.0661009 -0.000100001 0.997813
vn -0.0660013 -0 0.99782
vn -0.0660013 -0 0.99782
vn -0.0661009 -0.000100001 0.997813
vn -0.0623969 0.00169991 0.99805
vn -0.0586983 0.00319991 0.998271
vn -0.0660013 -0 0.99782
vn -0.0623969 0.00169991 0.99805
vn -0 0.0368008 0.999323
vn 0 0.0374 0.9993
vn 0.00019999 0.0359983 0.999352
vn 0 0.0352992 0.999377
vn -0 0.0368008 0.999323
vn 0.00019999 0.0359983 0.999352
vn 0 0.0374 0.9993
vn -0 0.0368008 0.999323
vn -0.00019999 0.0359983 0.999352
vn -0 0.0368008 0.999323
vn 0 0.0352992 0.999377
vn -0.00019999 0.0359983 0.999352
g Default
usemtl Default
s 1
f 1/36/1 2/39/2 3/40/3
f 4/34/4 1/36/5 3/40/6
f 5/32/7 1/36/8 4/34/9
f 6/30/10 5/32/11 4/34/12
f 7/28/13 5/32/14 6/30/15
f 8/27/16 7/28/17 6/30/18
f 8/27/19 9/25/20 7/28/21
f 9/25/22 10/24/23 7/28/24
f 11/21/25 10/24/26 9/25/27
f 12/20/28 11/21/29 9/25/30
f 13/17/31 11/21/32 12/20/33
f 14/15/34 13/17/35 12/20/36
f 14/15/37 15/9/38 13/17/39
f 15/9/40 16/13/41 13/17/42
f 17/8/43 16/13/44 15/9/45
f 18/3/46 17/8/47 15/9/48
f 18/3/49 19/1/50 17/8/51
f 19/1/52 20/6/53 17/8/54
f 19/1/55 21/2/56 20/6/57
f 21/2/58 22/7/59 20/6/60
f 23/10/61 22/7/62 21/2/63
f 24/4/64 23/10/65 21/2/66
f 25/11/67 23/10/68 24/4/69
f 26/5/70 25/11/71 24/4/72
f 26/5/73 27/12/74 25/11/75
f 27/12/76 28/14/77 25/11/78
f 29/18/79 28/14/80 27/12/81
f 30/16/82 29/18/83 27/12/84
f 31/22/85 29/18/86 30/16/87
f 32/19/88 31/22/89 30/16/90
f 33/26/91 31/22/92 32/19/93
f 34/23/94 33/26/95 32/19/96
f 33/26/97 34/23/98 35/29/99
f 36/31/100 33/26/101 35/29/102
f 37/35/103 36/31/104 35/29/105
f 38/33/106 37/35/107 35/29/108
f 39/38/109 37/35/110 38/33/111
f 40/37/112 39/38/113 38/33/114
f 39/38/115 40/37/116 41/44/117
f 42/42/118 39/38/119 41/44/120
f 42/42/121 41/44/122 43/48/123
f 44/46/124 42/42/125 43/48/126
f 45/51/127 44/46/128 43/48/129
f 46/54/130 45/51/131 43/48/132
f 45/51/133 46/54/134 47/58/135
f 48/55/136 45/51/137 47/58/138
f 48/55/139 47/58/140 49/61/141
f 50/59/142 48/55/143 49/61/144
f 50/59/145 49/61/146 51/65/147
f 52/63/148 50/59/149 51/65/150
f 52/63/151 51/65/152 53/66/153
f 51/65/154 54/72/155 53/66/156
f 53/66/157 54/72/158 55/73/159
f 56/67/160 53/66/161 55/73/162
f 56/67/163 55/73/164 57/75/165
f 58/70/166 56/67/167 57/75/168
f 58/70/169 57/75/170 59/71/171
f 57/75/172 60/76/173 59/71/174
f 59/71/175 60/76/176 61/69/177
f 60/76/178 62/74/179 61/69/180
f 61/69/181 62/74/182 63/68/183
f 64/64/184 61/69/185 63/68/186
f 64/64/187 63/68/188 65/60/189
f 63/68/190 66/62/191 65/60/192
f 65/60/193 66/62/194 67/57/195
f 68/56/196 65/60/197 67/57/198
f 68/56/199 67/57/200 69/52/201
f 70/53/202 68/56/203 69/52/204
f 70/53/205 69/52/206 71/49/207
f 69/52/208 72/50/209 71/49/210
f 71/49/211 72/50/212 73/47/213
f 74/45/214 71/49/215 73/47/216
f 74/45/217 73/47/218 75/43/219
f 76/41/220 74/45/221 75/43/222
f 76/41/223 75/43/224 3/40/225
f 2/39/226 76/41/227 3/40/228
f 37/80/229 39/77/230 77/78/231
f 39/77/232 42/79/233 77/78/234
f 78/87/235 79/88/236 80/85/237
f 81/86/238 78/87/239 80/85/240
f 81/86/241 80/85/242 82/82/243
f 80/85/244 83/81/245 82/82/246
f 79/88/247 78/87/248 84/92/249
f 78/87/250 85/91/251 84/92/252
f 84/92/253 85/91/254 86/95/255
f 87/96/256 84/92/257 86/95/258
f 88/89/259 89/90/260 90/84/261
f 91/83/262 88/89/263 90/84/264
f 89/90/265 88/89/266 92/94/267
f 88/89/268 93/93/269 92/94/270
