####
#
#	OBJ File Generated by LightWave3D
#	LightWave3D OBJ Export v2.3
#
####
o squid.obj
mtllib squid.mtl
g default
v 0.762062 29.6893 0.357543
v 16.0629 25.3832 2.18536
v 12.6587 16.2679 9.20835
v -2.64218 20.574 7.38053
v -0.086711 22.5843 -9.27565
v 15.2142 18.2782 -7.44783
v 11.8099 9.16289 -0.424839
v -3.49096 13.469 -2.25266
v -19.9788 36.4 0.91537
v 0.957454 26.8169 1.39033
v 0.490457 25.8811 3.09511
v -20.4458 35.4643 2.62015
v -20.8137 34.9131 -0.12954
v 0.122518 25.3299 0.345416
v -0.344479 24.3942 2.0502
v -21.2807 33.9773 1.57524
v -19.9788 36.4 0.91537
v 0.957454 26.8169 1.39033
v 0.490457 25.8811 3.09511
v -20.4458 35.4643 2.62015
v -20.8137 34.9131 -0.12954
v 0.122518 25.3299 0.345416
v -0.344479 24.3942 2.0502
v -21.2807 33.9773 1.57524
v -19.8041 31.2941 -12.5761
v 0.893889 23.2595 -6.45821
v 1.2458 24.9432 -5.43766
v -19.4522 32.9778 -11.5555
v -20.7502 30.5296 -10.9885
v -0.0522142 22.495 -4.87065
v 0.299693 24.1786 -3.8501
v -20.3983 32.2132 -9.96799
v -19.8041 31.2941 -12.5761
v 0.893889 23.2595 -6.45821
v 1.2458 24.9432 -5.43766
v -19.4522 32.9778 -11.5555
v -20.7502 30.5296 -10.9885
v -0.0522142 22.495 -4.87065
v 0.299693 24.1786 -3.8501
v -20.3983 32.2132 -9.96799
v -24.0183 18.3722 -7.74033
v -1.62477 15.7612 -3.03917
v -1.15777 16.6969 -4.74395
v -23.5513 19.308 -9.44511
v -24.1734 20.1378 -6.81368
v -1.77987 17.5268 -2.11253
v -1.31288 18.4625 -3.81731
v -23.7064 21.0735 -8.51847
v -24.0183 18.3722 -7.74033
v -1.62477 15.7612 -3.03917
v -1.15777 16.6969 -4.74395
v -23.5513 19.308 -9.44511
v -24.1734 20.1378 -6.81368
v -1.77987 17.5268 -2.11253
v -1.31288 18.4625 -3.81731
v -23.7064 21.0735 -8.51847
v -24.1931 23.4781 5.75114
v -1.56121 19.3186 4.80936
v -1.91311 17.6349 3.78881
v -24.545 21.7945 4.73059
v -24.237 24.5213 4.04532
v -1.60514 20.3617 3.10354
v -1.95705 18.6781 2.08299
v -24.5889 22.8377 3.02477
v -24.1931 23.4781 5.75114
v -1.56121 19.3186 4.80936
v -1.91311 17.6349 3.78881
v -24.545 21.7945 4.73059
v -24.237 24.5213 4.04532
v -1.60514 20.3617 3.10354
v -1.95705 18.6781 2.08299
v -24.5889 22.8377 3.02477
v -19.0186 36.5233 -6.83189
v 1.4473 26.5912 -3.24205
v 1.36592 27.12 -1.31495
v -19.1 37.0521 -4.90479
v -20.073 34.8735 -6.42368
v 0.392962 24.9414 -2.83384
v 0.311581 25.4702 -0.906741
v -20.1544 35.4024 -4.49658
v -19.0186 36.5233 -6.83189
v 1.4473 26.5912 -3.24205
v 1.36592 27.12 -1.31495
v -19.1 37.0521 -4.90479
v -20.073 34.8735 -6.42368
v 0.392962 24.9414 -2.83384
v 0.311581 25.4702 -0.906741
v -20.1544 35.4024 -4.49658
v -21.875 23.7757 -12.9524
v -0.378606 18.7736 -6.37417
v 0.200447 20.6258 -6.858
v -21.296 25.6279 -13.4362
v -22.4486 24.4258 -11.1501
v -0.952233 19.4237 -4.57187
v -0.37318 21.2759 -5.05569
v -21.8696 26.278 -11.6339
v -21.875 23.7757 -12.9524
v -0.378606 18.7736 -6.37417
v 0.200447 20.6258 -6.858
v -21.296 25.6279 -13.4362
v -22.4486 24.4258 -11.1501
v -0.952233 19.4237 -4.57187
v -0.37318 21.2759 -5.05569
v -21.8696 26.278 -11.6339
v -24.9785 18.2489 0.00692892
v -2.11462 15.9869 1.5932
v -2.03324 15.4581 -0.333897
v -24.8971 17.7201 -1.92017
v -24.9142 20.1773 -0.519544
v -2.05032 17.9153 1.06673
v -1.96894 17.3865 -0.86037
v -24.8328 19.6485 -2.44664
v -24.9785 18.2489 0.00692892
v -2.11462 15.9869 1.5932
v -2.03324 15.4581 -0.333897
v -24.8971 17.7201 -1.92017
v -24.9142 20.1773 -0.519544
v -2.05032 17.9153 1.06673
v -1.96894 17.3865 -0.86037
v -24.8328 19.6485 -2.44664
v -22.1221 30.9965 6.12743
v -0.288712 23.8045 4.72533
v -0.867764 21.9523 5.20915
v -22.7012 29.1443 6.61125
v -22.5385 30.625 4.20686
v -0.705124 23.433 2.80476
v -1.28418 21.5808 3.28858
v -23.1176 28.7728 4.69068
v -22.1221 30.9965 6.12743
v -0.288712 23.8045 4.72533
v -0.867764 21.9523 5.20915
v -22.7012 29.1443 6.61125
v -22.5385 30.625 4.20686
v -0.705124 23.433 2.80476
v -1.28418 21.5808 3.28858
v -23.1176 28.7728 4.69068
vt 0.0100489 0.501275
vt 0.0100489 0.779778
vt 0.0117585 0.501275
vt 0.0117585 0.779778
vt 0.196547 0.501275
vt 0.196547 0.779778
vt 0.198256 0.501275
vt 0.198256 0.779778
vt 0.218611 0.802513
vt 0.218611 0.998611
vt 0.218781 0.504
vt 0.218781 0.780244
vt 0.406463 0.504
vt 0.406463 0.780244
vt 0.414709 0.802513
vt 0.414709 0.998611
vt 0.425176 0.786376
vt 0.425176 0.997107
vt 0.427489 0.5031
vt 0.427489 0.780173
vt 0.635294 0.5031
vt 0.635294 0.780173
vt 0.635907 0.786376
vt 0.635907 0.997107
vt 0.864242 0.655021
vt 0.864242 0.95984
vt 0.866367 0.655021
vt 0.866367 0.95984
vt 0.892718 0.966752
vt 0.892718 0.99846
vt 0.920901 0.655021
vt 0.920901 0.95984
vt 0.923026 0.655021
vt 0.923026 0.95984
vt 0.928328 0.966752
vt 0.928328 0.99846
vt 0.93025 0.655021
vt 0.93025 0.95984
vt 0.963938 0.966752
vt 0.963938 0.99846
vt 0.986908 0.655021
vt 0.986908 0.95984
vn 0.0707311 0.592085 0.802766
vn 0.0707311 0.592085 0.802766
vn 0.0707311 0.592085 0.802766
vn 0.0707311 0.592085 0.802766
vn 0.283687 0.759609 -0.585249
vn 0.283687 0.759609 -0.585249
vn 0.283687 0.759609 -0.585249
vn 0.283687 0.759609 -0.585249
vn 0.956305 -0.26913 0.114239
vn 0.956305 -0.26913 0.114239
vn 0.956305 -0.26913 0.114239
vn 0.956305 -0.26913 0.114239
vn -0.283687 -0.759609 0.585249
vn -0.283687 -0.759609 0.585249
vn -0.283687 -0.759609 0.585249
vn -0.283687 -0.759609 0.585249
vn -0.956305 0.26913 -0.114239
vn -0.956305 0.26913 -0.114239
vn -0.956305 0.26913 -0.114239
vn -0.956305 0.26913 -0.114239
vn -0.0707311 -0.592085 -0.802766
vn -0.0707311 -0.592085 -0.802766
vn -0.0707311 -0.592085 -0.802766
vn -0.0707311 -0.592085 -0.802766
vn 0.345041 0.779706 0.5225
vn 0.345041 0.779706 0.5225
vn 0.345041 0.779706 0.5225
vn 0.345041 0.779706 0.5225
vn 0.233499 0.467878 -0.85239
vn 0.233499 0.467878 -0.85239
vn 0.233499 0.467878 -0.85239
vn 0.233499 0.467878 -0.85239
vn 0.878179 -0.477838 -0.0217228
vn 0.878179 -0.477838 -0.0217228
vn 0.878179 -0.477838 -0.0217228
vn 0.878179 -0.477838 -0.0217228
vn -0.233499 -0.467878 0.85239
vn -0.233499 -0.467878 0.85239
vn -0.233499 -0.467878 0.85239
vn -0.233499 -0.467878 0.85239
vn -0.87818 0.477838 0.0217226
vn -0.87818 0.477838 0.0217226
vn -0.87818 0.477838 0.0217226
vn -0.87818 0.477838 0.0217226
vn -0.345041 -0.779705 -0.5225
vn -0.345041 -0.779705 -0.5225
vn -0.345041 -0.779705 -0.5225
vn -0.345041 -0.779705 -0.5225
vn 0.345041 0.779706 0.5225
vn 0.345041 0.779706 0.5225
vn 0.345041 0.779706 0.5225
vn 0.345041 0.779706 0.5225
vn 0.233499 0.467878 -0.85239
vn 0.233499 0.467878 -0.85239
vn 0.233499 0.467878 -0.85239
vn 0.233499 0.467878 -0.85239
vn 0.878179 -0.477838 -0.0217228
vn 0.878179 -0.477838 -0.0217228
vn 0.878179 -0.477838 -0.0217228
vn 0.878179 -0.477838 -0.0217228
vn -0.233499 -0.467878 0.85239
vn -0.233499 -0.467878 0.85239
vn -0.233499 -0.467878 0.85239
vn -0.233499 -0.467878 0.85239
vn -0.87818 0.477838 0.0217226
vn -0.87818 0.477838 0.0217226
vn -0.87818 0.477838 0.0217226
vn -0.87818 0.477838 0.0217226
vn -0.345041 -0.779705 -0.5225
vn -0.345041 -0.779705 -0.5225
vn -0.345041 -0.779705 -0.5225
vn -0.345041 -0.779705 -0.5225
vn 0.401648 0.411859 -0.817956
vn 0.401648 0.411859 -0.817956
vn 0.401648 0.411859 -0.817956
vn 0.401648 0.411859 -0.817956
vn -0.175954 -0.84182 -0.510275
vn -0.175954 -0.84182 -0.510275
vn -0.175954 -0.84182 -0.510275
vn -0.175954 -0.84182 -0.510275
vn 0.863286 -0.381055 0.330961
vn 0.863286 -0.381055 0.330961
vn 0.863286 -0.381055 0.330961
vn 0.863286 -0.381055 0.330961
vn 0.175954 0.84182 0.510274
vn 0.175954 0.84182 0.510274
vn 0.175954 0.84182 0.510274
vn 0.175954 0.84182 0.510274
vn -0.863286 0.381054 -0.33096
vn -0.863286 0.381054 -0.33096
vn -0.863286 0.381054 -0.33096
vn -0.863286 0.381054 -0.33096
vn -0.401648 -0.411859 0.817956
vn -0.401648 -0.411859 0.817956
vn -0.401648 -0.411859 0.817956
vn -0.401648 -0.411859 0.817956
vn 0.401648 0.411859 -0.817956
vn 0.401648 0.411859 -0.817956
vn 0.401648 0.411859 -0.817956
vn 0.401648 0.411859 -0.817956
vn -0.175954 -0.84182 -0.510275
vn -0.175954 -0.84182 -0.510275
vn -0.175954 -0.84182 -0.510275
vn -0.175954 -0.84182 -0.510275
vn 0.863286 -0.381055 0.330961
vn 0.863286 -0.381055 0.330961
vn 0.863286 -0.381055 0.330961
vn 0.863286 -0.381055 0.330961
vn 0.175954 0.84182 0.510274
vn 0.175954 0.84182 0.510274
vn 0.175954 0.84182 0.510274
vn 0.175954 0.84182 0.510274
vn -0.863286 0.381054 -0.33096
vn -0.863286 0.381054 -0.33096
vn -0.863286 0.381054 -0.33096
vn -0.863286 0.381054 -0.33096
vn -0.401648 -0.411859 0.817956
vn -0.401648 -0.411859 0.817956
vn -0.401648 -0.411859 0.817956
vn -0.401648 -0.411859 0.817956
vn -0.00113083 -0.876491 -0.481416
vn -0.00113083 -0.876491 -0.481416
vn -0.00113083 -0.876491 -0.481416
vn -0.00113083 -0.876491 -0.481416
vn -0.233498 -0.467878 0.85239
vn -0.233498 -0.467878 0.85239
vn -0.233498 -0.467878 0.85239
vn -0.233498 -0.467878 0.85239
vn 0.96926 -0.0420806 0.242415
vn 0.96926 -0.0420806 0.242415
vn 0.96926 -0.0420806 0.242415
vn 0.96926 -0.0420806 0.242415
vn 0.233499 0.467878 -0.85239
vn 0.233499 0.467878 -0.85239
vn 0.233499 0.467878 -0.85239
vn 0.233499 0.467878 -0.85239
vn -0.96926 0.0420812 -0.242415
vn -0.96926 0.0420812 -0.242415
vn -0.96926 0.0420812 -0.242415
vn -0.96926 0.0420812 -0.242415
vn 0.00113078 0.876491 0.481416
vn 0.00113078 0.876491 0.481416
vn 0.00113078 0.876491 0.481416
vn 0.00113078 0.876491 0.481416
vn -0.00113083 -0.876491 -0.481416
vn -0.00113083 -0.876491 -0.481416
vn -0.00113083 -0.876491 -0.481416
vn -0.00113083 -0.876491 -0.481416
vn -0.233498 -0.467878 0.85239
vn -0.233498 -0.467878 0.85239
vn -0.233498 -0.467878 0.85239
vn -0.233498 -0.467878 0.85239
vn 0.96926 -0.0420806 0.242415
vn 0.96926 -0.0420806 0.242415
vn 0.96926 -0.0420806 0.242415
vn 0.96926 -0.0420806 0.242415
vn 0.233499 0.467878 -0.85239
vn 0.233499 0.467878 -0.85239
vn 0.233499 0.467878 -0.85239
vn 0.233499 0.467878 -0.85239
vn -0.96926 0.0420812 -0.242415
vn -0.96926 0.0420812 -0.242415
vn -0.96926 0.0420812 -0.242415
vn -0.96926 0.0420812 -0.242415
vn 0.00113078 0.876491 0.481416
vn 0.00113078 0.876491 0.481416
vn 0.00113078 0.876491 0.481416
vn 0.00113078 0.876491 0.481416
vn -0.0577375 -0.508645 0.859038
vn -0.0577375 -0.508645 0.859038
vn -0.0577375 -0.508645 0.859038
vn -0.0577375 -0.508645 0.859038
vn 0.175954 0.841819 0.510275
vn 0.175954 0.841819 0.510275
vn 0.175954 0.841819 0.510275
vn 0.175954 0.841819 0.510275
vn 0.984153 -0.138864 -0.110269
vn 0.984153 -0.138864 -0.110269
vn 0.984153 -0.138864 -0.110269
vn 0.984153 -0.138864 -0.110269
vn -0.175954 -0.841819 -0.510275
vn -0.175954 -0.841819 -0.510275
vn -0.175954 -0.841819 -0.510275
vn -0.175954 -0.841819 -0.510275
vn -0.984153 0.138864 0.110268
vn -0.984153 0.138864 0.110268
vn -0.984153 0.138864 0.110268
vn -0.984153 0.138864 0.110268
vn 0.0577376 0.508644 -0.859039
vn 0.0577376 0.508644 -0.859039
vn 0.0577376 0.508644 -0.859039
vn 0.0577376 0.508644 -0.859039
vn -0.0577375 -0.508645 0.859038
vn -0.0577375 -0.508645 0.859038
vn -0.0577375 -0.508645 0.859038
vn -0.0577375 -0.508645 0.859038
vn 0.175954 0.841819 0.510275
vn 0.175954 0.841819 0.510275
vn 0.175954 0.841819 0.510275
vn 0.175954 0.841819 0.510275
vn 0.984153 -0.138864 -0.110269
vn 0.984153 -0.138864 -0.110269
vn 0.984153 -0.138864 -0.110269
vn 0.984153 -0.138864 -0.110269
vn -0.175954 -0.841819 -0.510275
vn -0.175954 -0.841819 -0.510275
vn -0.175954 -0.841819 -0.510275
vn -0.175954 -0.841819 -0.510275
vn -0.984153 0.138864 0.110268
vn -0.984153 0.138864 0.110268
vn -0.984153 0.138864 0.110268
vn -0.984153 0.138864 0.110268
vn 0.0577376 0.508644 -0.859039
vn 0.0577376 0.508644 -0.859039
vn 0.0577376 0.508644 -0.859039
vn 0.0577376 0.508644 -0.859039
vn 0.456762 0.862608 -0.217429
vn 0.456762 0.862608 -0.217429
vn 0.456762 0.862608 -0.217429
vn 0.456762 0.862608 -0.217429
vn 0.0406903 -0.264417 -0.96355
vn 0.0406903 -0.264417 -0.96355
vn 0.0406903 -0.264417 -0.96355
vn 0.0406903 -0.264417 -0.96355
vn 0.848785 -0.49965 0.172957
vn 0.848785 -0.49965 0.172957
vn 0.848785 -0.49965 0.172957
vn 0.848785 -0.49965 0.172957
vn -0.0406902 0.264417 0.96355
vn -0.0406902 0.264417 0.96355
vn -0.0406902 0.264417 0.96355
vn -0.0406902 0.264417 0.96355
vn -0.848785 0.499651 -0.172957
vn -0.848785 0.499651 -0.172957
vn -0.848785 0.499651 -0.172957
vn -0.848785 0.499651 -0.172957
vn -0.456762 -0.862609 0.217427
vn -0.456762 -0.862609 0.217427
vn -0.456762 -0.862609 0.217427
vn -0.456762 -0.862609 0.217427
vn 0.456762 0.862608 -0.217429
vn 0.456762 0.862608 -0.217429
vn 0.456762 0.862608 -0.217429
vn 0.456762 0.862608 -0.217429
vn 0.0406903 -0.264417 -0.96355
vn 0.0406903 -0.264417 -0.96355
vn 0.0406903 -0.264417 -0.96355
vn 0.0406903 -0.264417 -0.96355
vn 0.848785 -0.49965 0.172957
vn 0.848785 -0.49965 0.172957
vn 0.848785 -0.49965 0.172957
vn 0.848785 -0.49965 0.172957
vn -0.0406902 0.264417 0.96355
vn -0.0406902 0.264417 0.96355
vn -0.0406902 0.264417 0.96355
vn -0.0406902 0.264417 0.96355
vn -0.848785 0.499651 -0.172957
vn -0.848785 0.499651 -0.172957
vn -0.848785 0.499651 -0.172957
vn -0.848785 0.499651 -0.172957
vn -0.456762 -0.862609 0.217427
vn -0.456762 -0.862609 0.217427
vn -0.456762 -0.862609 0.217427
vn -0.456762 -0.862609 0.217427
vn 0.211982 -0.308501 -0.927303
vn 0.211982 -0.308501 -0.927303
vn 0.211982 -0.308501 -0.927303
vn 0.211982 -0.308501 -0.927303
vn -0.289526 -0.926095 0.241912
vn -0.289526 -0.926095 0.241912
vn -0.289526 -0.926095 0.241912
vn -0.289526 -0.926095 0.241912
vn 0.913188 -0.191523 0.359731
vn 0.913188 -0.191523 0.359731
vn 0.913188 -0.191523 0.359731
vn 0.913188 -0.191523 0.359731
vn 0.289526 0.926096 -0.241912
vn 0.289526 0.926096 -0.241912
vn 0.289526 0.926096 -0.241912
vn 0.289526 0.926096 -0.241912
vn -0.913188 0.191524 -0.35973
vn -0.913188 0.191524 -0.35973
vn -0.913188 0.191524 -0.35973
vn -0.913188 0.191524 -0.35973
vn -0.211982 0.3085 0.927303
vn -0.211982 0.3085 0.927303
vn -0.211982 0.3085 0.927303
vn -0.211982 0.3085 0.927303
vn 0.211982 -0.308501 -0.927303
vn 0.211982 -0.308501 -0.927303
vn 0.211982 -0.308501 -0.927303
vn 0.211982 -0.308501 -0.927303
vn -0.289526 -0.926095 0.241912
vn -0.289526 -0.926095 0.241912
vn -0.289526 -0.926095 0.241912
vn -0.289526 -0.926095 0.241912
vn 0.913188 -0.191523 0.359731
vn 0.913188 -0.191523 0.359731
vn 0.913188 -0.191523 0.359731
vn 0.913188 -0.191523 0.359731
vn 0.289526 0.926096 -0.241912
vn 0.289526 0.926096 -0.241912
vn 0.289526 0.926096 -0.241912
vn 0.289526 0.926096 -0.241912
vn -0.913188 0.191524 -0.35973
vn -0.913188 0.191524 -0.35973
vn -0.913188 0.191524 -0.35973
vn -0.913188 0.191524 -0.35973
vn -0.211982 0.3085 0.927303
vn -0.211982 0.3085 0.927303
vn -0.211982 0.3085 0.927303
vn -0.211982 0.3085 0.927303
vn -0.112852 -0.959394 0.258511
vn -0.112852 -0.959394 0.258511
vn -0.112852 -0.959394 0.258511
vn -0.112852 -0.959394 0.258511
vn -0.0406903 0.264417 0.96355
vn -0.0406903 0.264417 0.96355
vn -0.0406903 0.264417 0.96355
vn -0.0406903 0.264417 0.96355
vn 0.998654 -0.0202682 0.0477346
vn 0.998654 -0.0202682 0.0477346
vn 0.998654 -0.0202682 0.0477346
vn 0.998654 -0.0202682 0.0477346
vn 0.0406903 -0.264417 -0.96355
vn 0.0406903 -0.264417 -0.96355
vn 0.0406903 -0.264417 -0.96355
vn 0.0406903 -0.264417 -0.96355
vn -0.998654 0.0202681 -0.0477348
vn -0.998654 0.0202681 -0.0477348
vn -0.998654 0.0202681 -0.0477348
vn -0.998654 0.0202681 -0.0477348
vn 0.112852 0.959394 -0.258511
vn 0.112852 0.959394 -0.258511
vn 0.112852 0.959394 -0.258511
vn 0.112852 0.959394 -0.258511
vn -0.112852 -0.959394 0.258511
vn -0.112852 -0.959394 0.258511
vn -0.112852 -0.959394 0.258511
vn -0.112852 -0.959394 0.258511
vn -0.0406903 0.264417 0.96355
vn -0.0406903 0.264417 0.96355
vn -0.0406903 0.264417 0.96355
vn -0.0406903 0.264417 0.96355
vn 0.998654 -0.0202682 0.0477346
vn 0.998654 -0.0202682 0.0477346
vn 0.998654 -0.0202682 0.0477346
vn 0.998654 -0.0202682 0.0477346
vn 0.0406903 -0.264417 -0.96355
vn 0.0406903 -0.264417 -0.96355
vn 0.0406903 -0.264417 -0.96355
vn 0.0406903 -0.264417 -0.96355
vn -0.998654 0.0202681 -0.0477348
vn -0.998654 0.0202681 -0.0477348
vn -0.998654 0.0202681 -0.0477348
vn -0.998654 0.0202681 -0.0477348
vn 0.112852 0.959394 -0.258511
vn 0.112852 0.959394 -0.258511
vn 0.112852 0.959394 -0.258511
vn 0.112852 0.959394 -0.258511
vn 0.131928 0.211715 0.968386
vn 0.131928 0.211715 0.968386
vn 0.131928 0.211715 0.968386
vn 0.131928 0.211715 0.968386
vn 0.289526 0.926096 -0.241912
vn 0.289526 0.926096 -0.241912
vn 0.289526 0.926096 -0.241912
vn 0.289526 0.926096 -0.241912
vn 0.934251 -0.328395 -0.139039
vn 0.934251 -0.328395 -0.139039
vn 0.934251 -0.328395 -0.139039
vn 0.934251 -0.328395 -0.139039
vn -0.289526 -0.926095 0.241913
vn -0.289526 -0.926095 0.241913
vn -0.289526 -0.926095 0.241913
vn -0.289526 -0.926095 0.241913
vn -0.934251 0.328395 0.139039
vn -0.934251 0.328395 0.139039
vn -0.934251 0.328395 0.139039
vn -0.934251 0.328395 0.139039
vn -0.131928 -0.211714 -0.968386
vn -0.131928 -0.211714 -0.968386
vn -0.131928 -0.211714 -0.968386
vn -0.131928 -0.211714 -0.968386
vn 0.131928 0.211715 0.968386
vn 0.131928 0.211715 0.968386
vn 0.131928 0.211715 0.968386
vn 0.131928 0.211715 0.968386
vn 0.289526 0.926096 -0.241912
vn 0.289526 0.926096 -0.241912
vn 0.289526 0.926096 -0.241912
vn 0.289526 0.926096 -0.241912
vn 0.934251 -0.328395 -0.139039
vn 0.934251 -0.328395 -0.139039
vn 0.934251 -0.328395 -0.139039
vn 0.934251 -0.328395 -0.139039
vn -0.289526 -0.926095 0.241913
vn -0.289526 -0.926095 0.241913
vn -0.289526 -0.926095 0.241913
vn -0.289526 -0.926095 0.241913
vn -0.934251 0.328395 0.139039
vn -0.934251 0.328395 0.139039
vn -0.934251 0.328395 0.139039
vn -0.934251 0.328395 0.139039
vn -0.131928 -0.211714 -0.968386
vn -0.131928 -0.211714 -0.968386
vn -0.131928 -0.211714 -0.968386
vn -0.131928 -0.211714 -0.968386
g SURF-squid
usemtl SURF-squid
s off
f 4/13/1 3/14/2 2/12/3 1/11/4
f 2/2/5 6/6/6 5/5/7 1/1/8
f 3/15/9 7/16/10 6/10/11 2/9/12
f 8/7/13 7/8/14 3/4/15 4/3/16
f 5/18/17 8/24/18 4/23/19 1/17/20
f 6/20/21 7/22/22 8/21/23 5/19/24
f 12/33/25 11/34/26 10/28/27 9/27/28
f 10/38/29 14/26/30 13/25/31 9/37/32
f 11/35/33 15/36/34 14/30/35 10/29/36
f 16/31/37 15/32/38 11/42/39 12/41/40
f 13/36/41 16/40/42 12/39/43 9/35/44
f 14/26/45 15/32/46 16/31/47 13/25/48
f 20/33/49 19/34/50 18/28/51 17/27/52
f 18/38/53 22/26/54 21/25/55 17/37/56
f 19/35/57 23/36/58 22/30/59 18/29/60
f 24/31/61 23/32/62 19/42/63 20/41/64
f 21/36/65 24/40/66 20/39/67 17/35/68
f 22/26/69 23/32/70 24/31/71 21/25/72
f 28/33/73 27/34/74 26/28/75 25/27/76
f 26/38/77 30/26/78 29/25/79 25/37/80
f 27/35/81 31/36/82 30/30/83 26/29/84
f 32/31/85 31/32/86 27/42/87 28/41/88
f 29/36/89 32/40/90 28/39/91 25/35/92
f 30/26/93 31/32/94 32/31/95 29/25/96
f 36/33/97 35/34/98 34/28/99 33/27/100
f 34/38/101 38/26/102 37/25/103 33/37/104
f 35/35/105 39/36/106 38/30/107 34/29/108
f 40/31/109 39/32/110 35/42/111 36/41/112
f 37/36/113 40/40/114 36/39/115 33/35/116
f 38/26/117 39/32/118 40/31/119 37/25/120
f 44/33/121 43/34/122 42/28/123 41/27/124
f 42/38/125 46/26/126 45/25/127 41/37/128
f 43/35/129 47/36/130 46/30/131 42/29/132
f 48/31/133 47/32/134 43/42/135 44/41/136
f 45/36/137 48/40/138 44/39/139 41/35/140
f 46/26/141 47/32/142 48/31/143 45/25/144
f 52/33/145 51/34/146 50/28/147 49/27/148
f 50/38/149 54/26/150 53/25/151 49/37/152
f 51/35/153 55/36/154 54/30/155 50/29/156
f 56/31/157 55/32/158 51/42/159 52/41/160
f 53/36/161 56/40/162 52/39/163 49/35/164
f 54/26/165 55/32/166 56/31/167 53/25/168
f 60/33/169 59/34/170 58/28/171 57/27/172
f 58/38/173 62/26/174 61/25/175 57/37/176
f 59/35/177 63/36/178 62/30/179 58/29/180
f 64/31/181 63/32/182 59/42/183 60/41/184
f 61/36/185 64/40/186 60/39/187 57/35/188
f 62/26/189 63/32/190 64/31/191 61/25/192
f 68/33/193 67/34/194 66/28/195 65/27/196
f 66/38/197 70/26/198 69/25/199 65/37/200
f 67/35/201 71/36/202 70/30/203 66/29/204
f 72/31/205 71/32/206 67/42/207 68/41/208
f 69/36/209 72/40/210 68/39/211 65/35/212
f 70/26/213 71/32/214 72/31/215 69/25/216
f 76/33/217 75/34/218 74/28/219 73/27/220
f 74/38/221 78/26/222 77/25/223 73/37/224
f 75/35/225 79/36/226 78/30/227 74/29/228
f 80/31/229 79/32/230 75/42/231 76/41/232
f 77/36/233 80/40/234 76/39/235 73/35/236
f 78/26/237 79/32/238 80/31/239 77/25/240
f 84/33/241 83/34/242 82/28/243 81/27/244
f 82/38/245 86/26/246 85/25/247 81/37/248
f 83/35/249 87/36/250 86/30/251 82/29/252
f 88/31/253 87/32/254 83/42/255 84/41/256
f 85/36/257 88/40/258 84/39/259 81/35/260
f 86/26/261 87/32/262 88/31/263 85/25/264
f 92/33/265 91/34/266 90/28/267 89/27/268
f 90/38/269 94/26/270 93/25/271 89/37/272
f 91/35/273 95/36/274 94/30/275 90/29/276
f 96/31/277 95/32/278 91/42/279 92/41/280
f 93/36/281 96/40/282 92/39/283 89/35/284
f 94/26/285 95/32/286 96/31/287 93/25/288
f 100/33/289 99/34/290 98/28/291 97/27/292
f 98/38/293 102/26/294 101/25/295 97/37/296
f 99/35/297 103/36/298 102/30/299 98/29/300
f 104/31/301 103/32/302 99/42/303 100/41/304
f 101/36/305 104/40/306 100/39/307 97/35/308
f 102/26/309 103/32/310 104/31/311 101/25/312
f 108/33/313 107/34/314 106/28/315 105/27/316
f 106/38/317 110/26/318 109/25/319 105/37/320
f 107/35/321 111/36/322 110/30/323 106/29/324
f 112/31/325 111/32/326 107/42/327 108/41/328
f 109/36/329 112/40/330 108/39/331 105/35/332
f 110/26/333 111/32/334 112/31/335 109/25/336
f 116/33/337 115/34/338 114/28/339 113/27/340
f 114/38/341 118/26/342 117/25/343 113/37/344
f 115/35/345 119/36/346 118/30/347 114/29/348
f 120/31/349 119/32/350 115/42/351 116/41/352
f 117/36/353 120/40/354 116/39/355 113/35/356
f 118/26/357 119/32/358 120/31/359 117/25/360
f 124/33/361 123/34/362 122/28/363 121/27/364
f 122/38/365 126/26/366 125/25/367 121/37/368
f 123/35/369 127/36/370 126/30/371 122/29/372
f 128/31/373 127/32/374 123/42/375 124/41/376
f 125/36/377 128/40/378 124/39/379 121/35/380
f 126/26/381 127/32/382 128/31/383 125/25/384
f 132/33/385 131/34/386 130/28/387 129/27/388
f 130/38/389 134/26/390 133/25/391 129/37/392
f 131/35/393 135/36/394 134/30/395 130/29/396
f 136/31/397 135/32/398 131/42/399 132/41/400
f 133/36/401 136/40/402 132/39/403 129/35/404
f 134/26/405 135/32/406 136/31/407 133/25/408
