####
#
#	OBJ File Generated by LightWave3D
#	LightWave3D OBJ Export v2.3
#
####
o compass_01.obj
mtllib compass_01.mtl
g default
v 0.5 0 -0
v 0.497592 0 -0.0490086
v 0.490393 0 -0.0975452
v 0.47847 0 -0.145142
v 0.46194 0 -0.191342
v 0.440961 0 -0.235698
v 0.415735 0 -0.277785
v 0.386505 0 -0.317197
v 0.353553 0 -0.353553
v 0.317197 0 -0.386505
v 0.277785 0 -0.415735
v 0.235698 0 -0.440961
v 0.191342 0 -0.46194
v 0.145142 0 -0.47847
v 0.0975452 0 -0.490393
v 0.0490086 0 -0.497592
v 0 0 -0.5
v -0.0490086 0 -0.497592
v -0.0975452 0 -0.490393
v -0.145142 0 -0.47847
v -0.191342 0 -0.46194
v -0.235698 0 -0.440961
v -0.277785 0 -0.415735
v -0.317197 0 -0.386505
v -0.353553 0 -0.353553
v -0.386505 0 -0.317197
v -0.415735 0 -0.277785
v -0.440961 0 -0.235698
v -0.46194 0 -0.191342
v -0.47847 0 -0.145142
v -0.490393 0 -0.0975452
v -0.497592 0 -0.0490086
v -0.5 0 -0
v -0.497592 0 0.0490086
v -0.490393 0 0.0975452
v -0.47847 0 0.145142
v -0.46194 0 0.191342
v -0.440961 0 0.235698
v -0.415735 0 0.277785
v -0.386505 0 0.317197
v -0.353553 0 0.353553
v -0.317197 0 0.386505
v -0.277785 0 0.415735
v -0.235698 0 0.440961
v -0.191342 0 0.46194
v -0.145142 0 0.47847
v -0.0975452 0 0.490393
v -0.0490086 0 0.497592
v 0 0 0.5
v 0.0490086 0 0.497592
v 0.0975452 0 0.490393
v 0.145142 0 0.47847
v 0.191342 0 0.46194
v 0.235698 0 0.440961
v 0.277785 0 0.415735
v 0.317197 0 0.386505
v 0.353553 0 0.353553
v 0.386505 0 0.317197
v 0.415735 0 0.277785
v 0.440961 0 0.235698
v 0.46194 0 0.191342
v 0.47847 0 0.145142
v 0.490393 0 0.0975452
v 0.497592 0 0.0490086
vt 0 0.5
vt 0.00240764 0.450991
vt 0.00240764 0.549009
vt 0.00960737 0.402455
vt 0.00960737 0.597545
vt 0.0215298 0.354858
vt 0.0215298 0.645142
vt 0.0380602 0.308658
vt 0.0380602 0.691342
vt 0.0590394 0.264302
vt 0.0590394 0.735698
vt 0.0842652 0.222215
vt 0.0842652 0.777785
vt 0.113495 0.182803
vt 0.113495 0.817197
vt 0.146447 0.146447
vt 0.146447 0.853553
vt 0.182803 0.113495
vt 0.182803 0.886505
vt 0.222215 0.0842652
vt 0.222215 0.915735
vt 0.264302 0.0590394
vt 0.264302 0.940961
vt 0.308658 0.0380602
vt 0.308658 0.96194
vt 0.354858 0.0215298
vt 0.354858 0.97847
vt 0.402455 0.00960737
vt 0.402455 0.990393
vt 0.450991 0.00240764
vt 0.450991 0.997592
vt 0.5 0
vt 0.5 1
vt 0.549009 0.00240764
vt 0.549009 0.997592
vt 0.597545 0.00960737
vt 0.597545 0.990393
vt 0.645142 0.0215298
vt 0.645142 0.97847
vt 0.691342 0.0380602
vt 0.691342 0.96194
vt 0.735698 0.0590394
vt 0.735698 0.940961
vt 0.777785 0.0842652
vt 0.777785 0.915735
vt 0.817197 0.113495
vt 0.817197 0.886505
vt 0.853553 0.146447
vt 0.853553 0.853553
vt 0.886505 0.182803
vt 0.886505 0.817197
vt 0.915735 0.222215
vt 0.915735 0.777785
vt 0.940961 0.264302
vt 0.940961 0.735698
vt 0.96194 0.308658
vt 0.96194 0.691342
vt 0.97847 0.354858
vt 0.97847 0.645142
vt 0.990393 0.402455
vt 0.990393 0.597545
vt 0.997592 0.450991
vt 0.997592 0.549009
vt 1 0.5
vn 0 1 -0
vn 0 1 -0
vn 0 1 -0
vn 0 1 -0
vn 0 1 -0
vn 0 1 -0
vn 0 1 -0
vn 0 1 -0
vn 0 1 -0
vn 0 1 -0
vn 0 1 -0
vn 0 1 -0
vn 0 1 -0
vn 0 1 -0
vn 0 1 -0
vn 0 1 -0
vn 0 1 -0
vn 0 1 -0
vn 0 1 -0
vn 0 1 -0
vn 0 1 -0
vn 0 1 -0
vn 0 1 -0
vn 0 1 -0
vn 0 1 -0
vn 0 1 -0
vn 0 1 -0
vn 0 1 -0
vn 0 1 -0
vn 0 1 -0
vn 0 1 -0
vn 0 1 -0
vn 0 1 -0
vn 0 1 -0
vn 0 1 -0
vn 0 1 -0
vn 0 1 -0
vn 0 1 -0
vn 0 1 -0
vn 0 1 -0
vn 0 1 -0
vn 0 1 -0
vn 0 1 -0
vn 0 1 -0
vn 0 1 -0
vn 0 1 -0
vn 0 1 -0
vn 0 1 -0
vn 0 1 -0
vn 0 1 -0
vn 0 1 -0
vn 0 1 0
vn 0 1 0
vn 0 1 0
vn 0 1 0
vn 0 1 0
vn 0 1 0
vn 0 1 0
vn 0 1 0
vn 0 1 0
vn 0 1 0
vn 0 1 0
vn 0 1 0
vn 0 1 0
vn 0 1 0
vn 0 1 0
vn 0 1 0
vn 0 1 0
vn 0 1 0
vn 0 1 0
vn 0 1 0
vn 0 1 0
vn 0 1 0
vn 0 1 0
vn 0 1 0
vn 0 1 0
vn 0 1 0
vn 0 1 0
vn 0 1 0
vn 0 1 0
vn 0 1 0
vn 0 1 0
vn 0 1 0
vn 0 1 0
vn 0 1 0
vn 0 1 0
vn 0 1 0
vn 0 1 0
vn 0 1 0
vn 0 1 0
vn 0 1 0
vn 0 1 0
vn 0 1 0
vn 0 1 0
vn 0 1 0
vn 0 1 0
vn 0 1 0
vn 0 1 0
vn 0 1 0
vn 0 1 -0
vn 0 1 -0
vn 0 1 -0
vn 0 1 -0
vn 0 1 -0
vn 0 1 -0
vn 0 1 -0
vn 0 1 -0
vn 0 1 -0
vn 0 1 -0
vn 0 1 -0
vn 0 1 -0
vn 0 1 -0
vn 0 1 -0
vn 0 1 -0
vn 0 1 -0
vn 0 1 -0
vn 0 1 -0
vn 0 1 -0
vn 0 1 -0
vn 0 1 -0
vn 0 1 -0
vn 0 1 -0
vn 0 1 -0
vn 0 1 -0
vn 0 1 -0
vn 0 1 -0
vn 0 1 -0
vn 0 1 -0
vn 0 1 -0
vn 0 1 -0
vn 0 1 -0
vn 0 1 -0
vn 0 1 -0
vn 0 1 -0
vn 0 1 -0
vn 0 1 -0
vn 0 1 -0
vn 0 1 -0
vn 0 1 -0
vn 0 1 -0
vn 0 1 -0
vn 0 1 -0
vn 0 1 -0
vn 0 1 -0
vn 0 1 -0
vn 0 1 -0
vn 0 1 -0
vn 0 1 -0
vn 0 1 -0
vn 0 1 -0
vn 0 1 -0
vn 0 1 -0
vn 0 1 -0
vn 0 1 -0
vn 0 1 -0
vn 0 1 -0
vn 0 1 -0
vn 0 1 -0
vn 0 1 -0
vn 0 1 -0
vn 0 1 -0
vn 0 1 -0
vn 0 1 -0
vn 0 1 -0
vn 0 1 -0
vn 0 1 -0
vn 0 1 -0
vn 0 1 -0
vn 0 1 -0
vn 0 1 -0
vn 0 1 -0
vn 0 1 -0
vn 0 1 -0
vn 0 1 -0
vn 0 1 -0
vn 0 1 -0
vn 0 1 -0
vn 0 1 -0
vn 0 1 -0
vn 0 1 -0
vn 0 1 -0
vn 0 1 -0
vn 0 1 -0
vn 0 1 -0
vn 0 1 -0
vn 0 1 -0
g SURF-cardinal
usemtl SURF-cardinal
s off
f 60/54/1 61/56/2 59/52/3
f 59/52/4 61/56/5 58/50/6
f 58/50/7 61/56/8 57/48/9
f 57/48/10 61/56/11 56/46/12
f 56/46/13 61/56/14 55/44/15
f 55/44/16 61/56/17 54/42/18
f 54/42/19 61/56/20 53/40/21
f 61/56/22 62/58/23 53/40/24
f 62/58/25 63/60/26 53/40/27
f 63/60/28 64/62/29 53/40/30
f 64/62/31 1/64/32 53/40/33
f 1/64/34 2/63/35 53/40/36
f 2/63/37 3/61/38 53/40/39
f 53/40/40 3/61/41 52/38/42
f 52/38/43 3/61/44 51/36/45
f 51/36/46 3/61/47 50/34/48
f 50/34/49 3/61/50 49/32/51
f 3/61/52 48/30/53 49/32/54
f 3/61/55 47/28/56 48/30/57
f 3/61/58 46/26/59 47/28/60
f 3/61/61 45/24/62 46/26/63
f 3/61/64 44/22/65 45/24/66
f 3/61/67 43/20/68 44/22/69
f 3/61/70 42/18/71 43/20/72
f 3/61/73 41/16/74 42/18/75
f 3/61/76 40/14/77 41/16/78
f 3/61/79 39/12/80 40/14/81
f 3/61/82 38/10/83 39/12/84
f 3/61/85 37/8/86 38/10/87
f 3/61/88 36/6/89 37/8/90
f 3/61/91 35/4/92 36/6/93
f 3/61/94 34/2/95 35/4/96
f 3/61/97 33/1/98 34/2/99
f 3/61/100 32/3/101 33/1/102
f 3/61/103 31/5/104 32/3/105
f 30/7/106 31/5/107 3/61/108
f 29/9/109 30/7/110 3/61/111
f 28/11/112 29/9/113 3/61/114
f 27/13/115 28/11/116 3/61/117
f 4/59/118 27/13/119 3/61/120
f 5/57/121 27/13/122 4/59/123
f 6/55/124 27/13/125 5/57/126
f 7/53/127 27/13/128 6/55/129
f 26/15/130 27/13/131 7/53/132
f 25/17/133 26/15/134 7/53/135
f 24/19/136 25/17/137 7/53/138
f 23/21/139 24/19/140 7/53/141
f 22/23/142 23/21/143 7/53/144
f 8/51/145 22/23/146 7/53/147
f 9/49/148 22/23/149 8/51/150
f 10/47/151 22/23/152 9/49/153
f 11/45/154 22/23/155 10/47/156
f 12/43/157 22/23/158 11/45/159
f 21/25/160 22/23/161 12/43/162
f 20/27/163 21/25/164 12/43/165
f 19/29/166 20/27/167 12/43/168
f 18/31/169 19/29/170 12/43/171
f 17/33/172 18/31/173 12/43/174
f 16/35/175 17/33/176 12/43/177
f 13/41/178 16/35/179 12/43/180
f 15/37/181 16/35/182 13/41/183
f 14/39/184 15/37/185 13/41/186
