####
#
#	OBJ File Generated by LightWave3D
#	LightWave3D OBJ Export v2.3
#
####
o road_edge.obj
mtllib road_edge.mtl
g default
v -5 0 5
v -5 0 -5
v -4.76 0.04 5
v -4.76 0.04 -5
v -4.7105 0.04 5
v -4.7105 0.04 -5
v -4.64348 0 5
v -4.64348 0 -5
v -5 0 5
v -5 0 -5
v 5 0 -5
v 5 0 5
vt 0 0
vt 0 1
vt 0.024 0
vt 0.024 1
vt 0.02895 0
vt 0.02895 1
vt 0.035652 0
vt 0.035652 1
vt 1 0
vt 1 1
vn -0.164399 0.986394 -0
vn -0.164399 0.986394 -0
vn -0.164399 0.986394 -0
vn -0.164399 0.986394 -0
vn -0.164399 0.986394 -0
vn -0.164399 0.986394 -0
vn 0 1 0
vn 0 1 0
vn 0 1 0
vn 0 1 -0
vn 0 1 -0
vn 0 1 -0
vn 0.512497 0.858689 0
vn 0.512497 0.858689 0
vn 0.512497 0.858689 0
vn 0.512497 0.858689 -0
vn 0.512497 0.858689 -0
vn 0.512497 0.858689 -0
vn 0 1 -0
vn 0 1 -0
vn 0 1 -0
vn 0 1 0
vn 0 1 0
vn 0 1 0
g SURF-road-edge
usemtl SURF-road-edge
s off
f 3/3/1 2/2/2 1/1/3
f 3/3/4 4/4/5 2/2/6
f 6/6/7 3/3/8 5/5/9
f 6/6/10 4/4/11 3/3/12
f 8/8/13 5/5/14 7/7/15
f 6/6/16 5/5/17 8/8/18
f 10/2/19 9/1/20 12/9/21
f 11/10/22 10/2/23 12/9/24
